<?xml version="1.0" encoding="UTF-8"?>
<svg version="1.1" xmlns="http://www.w3.org/2000/svg" width="120" height="116">
<path d="M0 0 C4.48028093 2.58580012 8.39996728 5.30405457 11.0703125 9.83203125 C11.8203125 12.64453125 11.8203125 12.64453125 12.0703125 14.83203125 C12.6271875 14.8578125 13.1840625 14.88359375 13.7578125 14.91015625 C21.83667039 15.5106119 27.38866061 17.70263262 32.9453125 23.70703125 C38.50781764 30.62531782 38.56974125 37.20236702 38.0703125 45.83203125 C37.86148438 46.69441406 37.65265625 47.55679688 37.4375 48.4453125 C36.98731863 51.37149138 37.57125653 52.41282775 39.0078125 54.95703125 C41.93187615 61.12210251 42.24728695 66.8870968 40.29296875 73.4375 C37.34961038 80.1936073 32.38882818 85.99155844 26.0703125 89.83203125 C19.96202323 89.59356951 16.28560535 85.22314099 12.34765625 80.97265625 C11.18791516 79.65176662 10.03971579 78.32066786 8.90234375 76.98046875 C6.29622288 73.92425025 3.57689085 70.97222797 0.8671875 68.0078125 C-1.01078844 65.73382859 -2.43891393 63.37164428 -3.9296875 60.83203125 C-3.96727173 62.77021729 -3.96727173 62.77021729 -4.00561523 64.74755859 C-4.09960374 69.52972781 -4.19984516 74.31174887 -4.30200195 79.09375 C-4.34538327 81.16565491 -4.38705596 83.23759632 -4.42700195 85.30957031 C-4.48462715 88.28331516 -4.54834375 91.25687573 -4.61328125 94.23046875 C-4.62999374 95.16071869 -4.64670624 96.09096863 -4.66392517 97.04940796 C-4.68387039 97.91014923 -4.70381561 98.7708905 -4.72436523 99.65771484 C-4.73990952 100.417164 -4.7554538 101.17661316 -4.77146912 101.95907593 C-4.9296875 103.83203125 -4.9296875 103.83203125 -5.9296875 105.83203125 C-7.9096875 105.83203125 -9.8896875 105.83203125 -11.9296875 105.83203125 C-12.2596875 90.98203125 -12.5896875 76.13203125 -12.9296875 60.83203125 C-16.3946875 65.78203125 -16.3946875 65.78203125 -19.9296875 70.83203125 C-32.84389478 87.66662288 -32.84389478 87.66662288 -40.9296875 91.83203125 C-41.950625 90.96578125 -41.950625 90.96578125 -42.9921875 90.08203125 C-45.88277269 87.71570194 -45.88277269 87.71570194 -49.3671875 86.14453125 C-54.75039523 83.19966925 -58.03110602 77.52777568 -59.9296875 71.83203125 C-60.5427513 65.04812857 -60.61095606 59.503397 -56.70703125 53.74609375 C-55.55643776 50.91297409 -56.32742897 48.79222318 -56.9296875 45.83203125 C-57.79062261 36.02967008 -56.76600731 29.70941172 -50.49609375 22.08984375 C-46.82403337 18.40862611 -43.23370976 17.22485857 -38.2421875 15.89453125 C-33.89926375 14.83746059 -33.89926375 14.83746059 -30.44921875 12.2421875 C-29.55799541 10.46363262 -28.74344523 8.64733696 -27.9296875 6.83203125 C-20.55452259 -1.0840993 -10.39527434 -4.14424937 0 0 Z " fill="#70B82D" transform="translate(70.9296875,7.16796875)"/>
<path d="M0 0 C1.65 0 3.3 0 5 0 C5 5.61 5 11.22 5 17 C15.23 17 25.46 17 36 17 C36 18.65 36 20.3 36 22 C26.43 22 16.86 22 7 22 C10.2615619 27.87081143 12.94886368 32.60752516 17.25 37.5 C17.72671143 38.05115479 18.20342285 38.60230957 18.69458008 39.17016602 C25.18136819 46.59490716 31.88065151 53.35849083 40 59 C39.04878771 61.45729841 38.54299785 62.72678635 36.14453125 63.93359375 C31.59647274 64.07442616 28.18400201 59.89700863 25 57 C23.16884471 55.09575237 21.45239385 53.14287956 19.76171875 51.11328125 C17.20459293 48.04586425 14.49086199 45.12300302 11.796875 42.17578125 C9.91889906 39.90179734 8.49077357 37.53961303 7 35 C6.96241577 36.93818604 6.96241577 36.93818604 6.92407227 38.91552734 C6.83008376 43.69769656 6.72984234 48.47971762 6.62768555 53.26171875 C6.58430423 55.33362366 6.54263154 57.40556507 6.50268555 59.47753906 C6.44506035 62.45128391 6.38134375 65.42484448 6.31640625 68.3984375 C6.29969376 69.32868744 6.28298126 70.25893738 6.26576233 71.21737671 C6.24581711 72.07811798 6.22587189 72.93885925 6.20532227 73.82568359 C6.18977798 74.58513275 6.1742337 75.34458191 6.15821838 76.12704468 C6 78 6 78 5 80 C3.02 80 1.04 80 -1 80 C-1.33 65.15 -1.66 50.3 -2 35 C-5.465 39.95 -5.465 39.95 -9 45 C-21.91420728 61.83459163 -21.91420728 61.83459163 -30 66 C-31.32 64.68 -32.64 63.36 -34 62 C-31.44844514 59.42520693 -28.88485213 56.8921812 -26.23828125 54.4140625 C-16.12779916 44.85993167 -9.22959393 34.45918786 -3 22 C-12.24 22 -21.48 22 -31 22 C-31 20.35 -31 18.7 -31 17 C-20.77 17 -10.54 17 0 17 C0 11.39 0 5.78 0 0 Z " fill="#221C15" transform="translate(60,33)"/>
<path d="M0 0 C10.23 0 20.46 0 31 0 C31 1.65 31 3.3 31 5 C29.68 5 28.36 5 27 5 C27 4.34 27 3.68 27 3 C26.34 3 25.68 3 25 3 C25 2.34 25 1.68 25 1 C16.75 1 8.5 1 0 1 C0 0.67 0 0.34 0 0 Z " fill="#2C3217" transform="translate(65,50)"/>
<path d="M0 0 C0.33 0.66 0.66 1.32 1 2 C0.01 3.485 0.01 3.485 -1 5 C-1.33 6.65 -1.66 8.3 -2 10 C-8.435 10.495 -8.435 10.495 -15 11 C-12 9 -12 9 -8.0625 8.3125 C-5.46174649 7.73295824 -4.31825859 7.37997079 -2.58984375 5.31640625 C-1.34938337 3.1773228 -1.34938337 3.1773228 0 0 Z " fill="#89C64E" transform="translate(43,14)"/>
<path d="M0 0 C1.65 0 3.3 0 5 0 C5 1.65 5 3.3 5 5 C3.68 5 2.36 5 1 5 C1 4.34 1 3.68 1 3 C0.34 3 -0.32 3 -1 3 C-0.67 2.01 -0.34 1.02 0 0 Z " fill="#333321" transform="translate(91,50)"/>
</svg>
