<svg height="512" width="512" xmlns="http://www.w3.org/2000/svg"><path d="m0 0c.62693945.19761114 1.2538789.39522228 1.89981651.59882164 2.06524596.65465274 4.12329399 1.3294511 6.1819706 2.00444984 1.49063633.4766933 2.98170232.95204481 4.47315979 1.42616272 4.02057469 1.28188685 8.03536672 2.58104944 12.04924774 3.8837204 4.20934208 1.36317365 8.42338516 2.71164006 12.63726044 4.06072235 5.24823629 1.68074788 10.49620041 3.36229153 15.7421875 5.05004883 11.4506443 3.68107727 22.92114661 7.2924701 34.41119957 10.84856224 2.54054426.78665693 5.08050273 1.57517487 7.62024879 2.36440468.82447349.25618575 1.64894697.5123715 2.49840451.77632046 1.64256456.51043145 3.28511549 1.02090679 4.92765235 1.53142738 3.99366412 1.24041473 7.98862607 2.47630172 11.98661709 3.70270443 3.75504957 1.15212987 7.5060317 2.31667809 11.2544384 3.49023247 1.36567922.42508701 2.7327777.84564814 4.10142899 1.26106644 20.84592342 6.33341817 20.84592342 6.33341817 25.82549858 14.85072135.45503906.74636719.91007812 1.49273438 1.37890625 2.26171875 2.12253407 4.11192024 2.18640426 7.41218597 2.19281483 11.98531533.00235223.71325886.00470446 1.42651772.00712797 2.16139048.00669751 2.40835804.00623155 4.81666223.00582197 7.22502881.00329816 1.73684153.00702363 3.47368228.01114148 5.21052206.01003362 4.78731173.01373898 9.57461092.01638931 14.36193168.00389903 5.15763723.01347766 10.3152645.02221286 15.47289538.01977605 12.46311931.02983219 24.92623943.03872779 37.38937051.00438115 5.86644018.00974841 11.73287945.01498887 17.59931892.01701363 19.49699656.03150825 38.99399256.03874874 58.4909954.00190996 5.06126596.00383028 10.12253191.00578595 15.18379784.00048374 1.25798214.00096748 2.51596427.00146587 3.81206708.00830194 20.38271519.03364103 40.76537173.0661148 61.1480613.03305509 20.91779917.05108075 41.83556851.05427762 62.75339394.00216656 11.7480831.01093659 23.49608068.03646118 35.24413836.02168582 10.00443957.02976784 20.00877284.02003322 30.01323325-.00455086 5.10489064-.00261275 10.20956186.01676144 15.31442254.01758825 4.67464498.01666919 9.34890976.00110271 14.02355854-.00238267 1.68983508.00198158 3.37969619.01382865 5.06949142.06353337 9.66159648.01857601 18.08868421-6.39974276 25.89653591-8.4802154 6.94306842-15.21295907 8.48305431-26.10546875 7.6953125-4.39746031-.87658512-8.58888554-2.19710408-12.84375-3.6015625-1.82404358-.57694358-1.82404358-.57694358-3.68493652-1.1655426-2.62674077-.83111168-5.24934353-1.67383054-7.8692627-2.52619934-4.16482912-1.354985-8.33791071-2.68321855-12.51220703-4.00869751-7.473081-2.37709876-14.93798276-4.77912173-22.40136719-7.1864624-4.76738705-1.53759579-9.5362697-3.07051083-14.30566406-4.60186768-.79887383-.25650329-1.59774765-.51300659-2.42082977-.77728271-6.35031454-2.0383345-12.70203552-4.07226602-19.05421448-6.10478211-4.57147271-1.46365275-9.1400486-2.93593849-13.70640564-4.41547107-2.8528452-.92308483-5.70749058-1.84050735-8.56255341-2.75670719-1.32175266-.42556962-2.64271698-.85359715-3.96279907-1.28432084-1.81435833-.59169712-3.63185009-1.17375949-5.44944763-1.75543022-1.01497559-.32828293-2.02995117-.65656585-3.07568359-.99479675-8.17454372-2.12965834-13.34687642-1.6545638-21.31567383.84098816-.98892746.29602112-1.97785492.59204224-2.99674988.89703369-3.27763359.98515014-6.54805406 1.99233694-9.81892395 2.99969482-2.32741177.70433398-4.65524595 1.40727342-6.98347473 2.10890198-6.16687778 1.86249133-12.32791852 3.74361301-18.48789978 5.62876892-6.05639546 1.8502162-12.11786492 3.68362474-18.17901612 5.51818848-27.36755535 8.28778786-27.36755535 8.28778786-54.69953823 16.69186687-4.88458604 1.51210572-9.7723928 3.01362059-14.66071605 4.51359463-2.30592188.7106288-4.61029956 1.42629062-6.91299057 2.1473198-3.18224748.99612686-6.36936625 1.97491746-9.55805397 2.95019722-.92401171.2941813-1.84802342.58836261-2.80003548.89145851-8.55027418 2.580013-16.06486128 2.93266344-24.64356804.16884422-.62218288-.19602751-1.24436577-.39205502-1.88540268-.59402275-2.05076475-.6498209-4.09432564-1.31979611-6.1385231-1.98996163-1.4824435-.47392829-2.96531571-.94651734-4.44857788-1.41787719-4.00418321-1.27630868-8.00255726-2.56996736-11.99998474-3.86725617-4.19742878-1.3594116-8.39942405-2.7045445-12.60124207-4.05031585-1.72620933-.55302936-3.45240552-1.10609976-5.17858887-1.65921021-.86400924-.27684757-1.72801849-.55369514-2.61820983-.83893204-2.65812879-.85262584-5.31555802-1.70740267-7.97285462-2.56261825-11.7221522-3.76931352-23.46659334-7.46050631-35.23024368-11.0981369-5.23398283-1.61971263-10.46536356-3.24781869-15.69704628-4.87494278-4.18869392-1.30178693-8.37895861-2.59800622-12.57301521-3.88241959-3.94406313-1.20813887-7.8831655-2.43128727-11.81914139-3.66550827-1.43967292-.44843812-2.88107871-.89135882-4.32433319-1.32813263-9.1458602-2.7711316-18.57905383-5.68278276-23.54457474-14.53590012-.38027344-.65355468-.76054688-1.30710937-1.15234375-1.98046875-2.00414472-4.03409387-2.03815404-7.3329932-2.04437733-11.784976-.00352834-1.07287025-.00352834-1.07287025-.00712797-2.16741464-.00669761-2.41511072-.00623155-4.83016773-.00582197-7.24528697-.00329815-1.74167901-.00702361-3.48335726-.01114148-5.22503453-.01003366-4.80064392-.01373899-9.60127533-.01638931-14.40192825-.00389899-5.17193315-.01347759-10.34385637-.02221286-15.51578319-.0197756-12.49722625-.02983189-24.99445333-.03872779-37.49169132-.004381-5.88201014-.00974829-11.76401937-.01498887-17.64602879-.01701317-19.54761092-.03150809-39.09522128-.03874874-58.64283848-.00190997-5.07433733-.00383029-10.14867465-.00578595-15.22301197-.00048374-1.26123506-.00096748-2.52247012-.00146588-3.82192442-.00830308-20.43835615-.03364431-40.87665382-.06611479-61.31498443-.03304913-20.97316494-.05108019-41.94630014-.05427763-62.91949127-.00216705-11.77990919-.01094434-23.5597331-.03646117-35.33961695-.02167765-10.03081851-.02977187-20.06153102-.02003322-30.09237029.00455317-5.11894336.0025994-10.23766791-.01676144-15.35658143-.01757177-4.68631177-.0166827-9.37224412-.00110271-14.05855958.00238519-1.69520081-.0019945-3.39042749-.01382865-5.08558867-.11211229-17.11997584-.11211229-17.11997584 6.39974276-24.70595132 8.43751767-7.06276937 15.18288272-8.58288566 26.10546875-7.79296875 4.3974603.87658513 8.58888554 2.19710409 12.84375 3.6015625 1.82404358.57694359 1.82404358.57694359 3.68493652 1.16554261 2.62674077.83111168 5.24934352 1.67383053 7.8692627 2.52619934 4.16482912 1.354985 8.33791071 2.68321855 12.51220703 4.00869751 7.473081 2.37709876 14.93798276 4.77912173 22.40136719 7.1864624 4.76738705 1.53759579 9.53626969 3.07051082 14.30566406 4.60186768.79887382.25650329 1.59774765.51300659 2.42082977.77728271 6.35031454 2.0383345 12.70203552 4.07226602 19.05421448 6.1047821 4.57147271 1.46365275 9.1400486 2.93593849 13.70640564 4.41547108 2.85284519.92308483 5.70749058 1.84050735 8.56255341 2.75670719 1.32175266.42556962 2.64271698.85359715 3.96279907 1.28432083 1.81435833.59169713 3.63185009 1.1737595 5.44944763 1.75543023 1.01497559.32828292 2.02995117.65656585 3.07568359.99479675 8.17454372 2.12965834 13.34687642 1.6545638 21.31567383-.84098816.98892746-.29602112 1.97785492-.59204224 2.99674988-.89703369 3.27763359-.98515014 6.54805405-1.99233694 9.81892395-2.99969483 2.32741176-.70433397 4.65524595-1.40727341 6.98347473-2.10890197 6.16687778-1.86249133 12.32791852-3.74361301 18.48789978-5.62876892 6.05639546-1.8502162 12.11786492-3.68362474 18.17901611-5.51818848 27.36755536-8.28778786 27.36755536-8.28778786 54.69953824-16.69186688 4.88458604-1.51210571 9.7723928-3.01362058 14.66071605-4.51359462 2.30592188-.7106288 4.61029956-1.42629062 6.91299057-2.1473198 3.18224748-.99612686 6.36936625-1.97491746 9.55805397-2.95019722.92401171-.2941813 1.84802342-.58836261 2.80003548-.89145851 8.57512978-2.58751309 16.08907779-2.92511446 24.69117546-.15297508z" fill="#ddc39b" transform="translate(352.953369 1.838135)"/><path d="m0 0c1.97381613.63976181 3.94777374 1.27908729 5.921875 1.91796875.94423828.30728027 1.88847656.61456055 2.86132812.93115234 3.14662041 1.0178499 6.30377645 1.99778348 9.46679688 2.96337891 6.03418359 1.84399629 12.05695402 3.72345595 18.078125 5.609375 2.50908823.78572205 5.01948615 1.56656746 7.53125 2.34375 10.74973276 3.33288658 21.45694774 6.79619255 32.16235352 10.26831055 8.09647767 2.62288504 16.21295382 5.17015926 24.35327148 7.65356445 2.83461602.87089829 5.66775498 1.74642604 8.5 2.625.66257813.20367187 1.32515625.40734375 2.0078125.6171875 3.58414958 1.11379947 6.99804652 2.36015611 10.4921875 3.7578125v335c-1.98.99-3.96 1.98-6 3-1.43155899 1.21589984-1.43155899 1.21589984-1.3125 4.8125.03418329 3.17904601.15388594 3.97419144 2.125 6.625 2.19132924 1.72715744 2.19132924 1.72715744 5.1875 2.5625v74c-9.75565472-2.86931021-19.39835152-5.71572561-29-9-7.52908616-2.54451654-15.06605613-4.95879906-22.70800781-7.13891602-5.57061931-1.60619078-11.05301228-3.43425994-16.54199219-5.29858398-6.64488324-2.25141889-13.29852019-4.32631704-20.0625-6.1875-10.07009288-2.80413821-20.03695731-5.93441486-29.99179077-9.11981201-1.83148689-.5844563-3.66435163-1.16461319-5.49859619-1.74035645-2.60233208-.81828174-5.19895505-1.65269863-7.79476929-2.49139404-.78767761-.24468018-1.57535522-.48936035-2.38690186-.74145508-4.26335335-1.3996939-7.13647144-2.65640903-10.01544189-6.28198242-1.45284124-2.90568249-1.12957845-5.43452711-1.13422108-8.68210316-.00352834-1.04716205-.00352834-1.04716205-.00712797-2.1154789-.00671018-2.36280149-.00623117-4.72554825-.00582197-7.08835849-.00329736-1.70170606-.00702266-3.40341133-.01114148-5.10511559-.0100425-4.6946794-.0137404-9.38934601-.01638931-14.08403463-.00389636-5.05600964-.01347509-10.1120091-.02221286-15.16801226-.01978258-12.21879706-.02983255-24.43759497-.03872779-36.65640405-.00437966-5.74890842-.00974727-11.49781592-.01498887-17.24672362-.01701349-19.10150174-.03150902-38.20300291-.03874874-57.30451107-.00191001-4.95937189-.00383033-9.91874378-.00578595-14.87811565-.00048374-1.23268135-.00096748-2.46536269-.00146588-3.73539802-.00830534-19.98132366-.03365023-39.96258756-.06611479-59.9438851-.0330326-20.49738361-.05107867-40.9947368-.05427762-61.49214717-.00216855-11.51546315-.01096748-23.03083912-.03646118-34.54627639-.02165508-9.80438878-.02978306-19.60866921-.02003322-29.41307918.00455971-5.00515162.00256186-10.01007945-.01676144-15.0152007-.01752556-4.57887332-.0167209-9.15735785-.00110271-13.73623469.00239229-1.65951144-.00203071-3.31904906-.01382865-4.97852029-.01501474-2.2507355-.00552063-4.50007474.01022688-6.75077446-.00097681-1.25161322-.00195361-2.50322645-.00296002-3.79276735.58921046-3.86562566 1.77806431-5.51163726 4.49794465-8.26685923 5.56388536-2.78194268 14.14817182 1.5069213 19.625 3.3125z" fill="#fedfb1" transform="translate(40.625 27.3125)"/><path d="m0 0c7.87301587 1.12471655 7.87301587 1.12471655 11.171875 2.19921875 1.10504883.35481445 1.10504883.35481445 2.23242188.71679687.77408203.25458985 1.54816406.50917969 2.34570312.77148438 1.69266055.54572116 3.38537027 1.09128982 5.078125 1.63671875 1.28874023.41838135 1.28874023.41838135 2.60351562.84521484 4.0159184 1.29868388 8.04230296 2.56373972 12.06835938 3.83056641 1.58338997.49982061 3.16672318.99982107 4.75 1.5.78375.2475 1.5675.495 2.375.75l7.125 2.25c.7835083.24741943 1.5670166.49483887 2.37426758.74975586 1.58578457.50078265 3.17155929 1.00159653 4.75732422 1.50244141 3.92074968 1.23827964 7.8416606 2.47604348 11.76293945 3.71264648 9.3893327 2.96173582 18.77405542 5.93759983 28.15454102 8.92724609 5.19362896 1.65440558 10.39041268 3.29807754 15.59155273 4.92871094 3.08906686.97108704 6.17448941 1.95346974 9.25976562 2.93652344 2.47236494.78147694 4.94999232 1.54484341 7.42773438 2.30908203 1.64085227.51881301 3.28148505 1.03832082 4.921875 1.55859375.76022461.22953369 1.52044922.45906738 2.30371094.69555664 4.18676997 1.34848484 6.5447924 2.30886198 8.69628906 6.17944336.37719816 3.14562076.37719816 3.14562076.38031673 6.94381618.00465992.70210411.00931984 1.40420821.01412097 2.12758819.01199883 2.3645244.00253609 4.72847937-.00675765 7.09300908.00417079 1.70755968.0096469 3.41511659.01631982 5.12266833.01450682 4.70161599.0101936 9.40305746.00283318 14.10468322-.00471646 5.0668926.00776465 10.1337466.01801741 15.20062697.01722323 9.9300012.01802073 19.85993923.0127871 29.78995149-.00403634 8.06861445-.00260453 16.13721018.00274826 24.20582373.00074842 1.14701398.00149684 2.29402796.00226794 3.47579994.00153143 2.32992321.00306978 4.65984642.00461497 6.98976962.01373776 21.86477181.00827837 43.72950787-.00318521 65.59427888-.00993402 20.01676933.00300897 40.03344626.02693419 60.05020134.02436404 20.53813579.03400553 41.07622849.02734727 61.61437846-.00349818 11.53666175-.00122071 23.07325241.01625103 34.60990327.0146883 9.82082147.01540168 19.64152177-.00207091 29.46234077-.00854019 5.0132578-.01058621 10.02629884.00465156 15.0395456.01376752 4.58620943.00918694 9.17201478-.01023924 13.75820036-.00378484 1.66213753-.00076717 3.32430682.00961165 4.98641626.01307929 2.25427215.00166966 4.50713081-.01599782 6.76134098-.00010734 1.25356685-.00021467 2.50713369-.00032526 3.7986874-.59418567 3.88521546-1.72609239 5.53258269-4.50024599 8.27096993-6.91927222 2.51443049-13.25762515-.74560583-19.875-3.125-2.43670676-.84603811-4.87420649-1.68979586-7.3125-2.53125-1.7634375-.61294922-1.7634375-.61294922-3.5625-1.23828125-4.01098333-1.36431284-8.04785361-2.58218243-12.125-3.73046875-7.2611873-2.06239704-14.39720485-4.44471161-21.54711914-6.86206055-4.76982316-1.60393008-9.53641819-3.11589497-14.39038086-4.45043945-6.33209571-1.74807856-12.5292341-3.82965335-18.75-5.9375-8.70413894-2.94922336-17.43473623-5.66105-26.31079102-8.04638672-5.99847798-1.64132904-11.25273899-3.72902529-17.12670898-6.07861328 0-107.58 0-215.16 0-326 11.10541045 1.11054104 11.10541045 1.11054104 15.625 3.0625 4.8180895 1.8604504 8.2311233 2.65944761 13.375 1.9375 2.62716577-1.45997987 2.62716577-1.45997987 4-4 .46237076-3.17054238.44390464-5.11565872-1-7.9921875-3.00144128-3.01316566-6.43560147-3.88159857-10.4375-5.1328125-.74443359-.25136719-1.48886719-.50273438-2.25585938-.76171875-6.4879857-2.10212938-12.40615649-2.96320056-19.30664062-4.11328125 0-27.06 0-54.12 0-82z" fill="#fedfb1" transform="translate(350 21)"/><path d="m0 0c.62693945.19761114 1.2538789.39522228 1.89981651.59882164 2.06524596.65465274 4.12329399 1.3294511 6.1819706 2.00444984 1.49063633.4766933 2.98170232.95204481 4.47315979 1.42616272 4.02057469 1.28188685 8.03536672 2.58104944 12.04924774 3.8837204 4.20934208 1.36317365 8.42338516 2.71164006 12.63726044 4.06072235 5.24823629 1.68074788 10.49620041 3.36229153 15.7421875 5.05004883 11.4506443 3.68107727 22.92114661 7.2924701 34.41119957 10.84856224 2.54054426.78665693 5.08050273 1.57517487 7.62024879 2.36440468.82447349.25618575 1.64894697.5123715 2.49840451.77632046 1.64256456.51043145 3.28511549 1.02090679 4.92765235 1.53142738 3.99366412 1.24041473 7.98862607 2.47630172 11.98661709 3.70270443 3.75504957 1.15212987 7.5060317 2.31667809 11.2544384 3.49023247 1.36567922.42508701 2.7327777.84564814 4.10142899 1.26106644 20.84592342 6.33341817 20.84592342 6.33341817 25.82549858 14.85072135.45503906.74636719.91007812 1.49273438 1.37890625 2.26171875 2.12253407 4.11192024 2.18640426 7.41218597 2.19281483 11.98531533.00235223.71325886.00470446 1.42651772.00712797 2.16139048.00669751 2.40835804.00623155 4.81666223.00582197 7.22502881.00329816 1.73684153.00702363 3.47368228.01114148 5.21052206.01003362 4.78731173.01373898 9.57461092.01638931 14.36193168.00389903 5.15763723.01347766 10.3152645.02221286 15.47289538.01977605 12.46311931.02983219 24.92623943.03872779 37.38937051.00438115 5.86644018.00974841 11.73287945.01498887 17.59931892.01701363 19.49699656.03150825 38.99399256.03874874 58.4909954.00190996 5.06126596.00383028 10.12253191.00578595 15.18379784.00048374 1.25798214.00096748 2.51596427.00146587 3.81206708.00830194 20.38271519.03364103 40.76537173.0661148 61.1480613.03305509 20.91779917.05108075 41.83556851.05427762 62.75339394.00216656 11.7480831.01093659 23.49608068.03646118 35.24413836.02168582 10.00443957.02976784 20.00877284.02003322 30.01323325-.00455086 5.10489064-.00261275 10.20956186.01676144 15.31442254.01758825 4.67464498.01666919 9.34890976.00110271 14.02355854-.00238267 1.68983508.00198158 3.37969619.01382865 5.06949142.06353337 9.66159648.01857601 18.08868421-6.39974276 25.89653591-8.4802154 6.94306842-15.21295907 8.48305431-26.10546875 7.6953125-4.39746031-.87658512-8.58888554-2.19710408-12.84375-3.6015625-1.82404358-.57694358-1.82404358-.57694358-3.68493652-1.1655426-2.62674077-.83111168-5.24934353-1.67383054-7.8692627-2.52619934-4.16482912-1.354985-8.33791071-2.68321855-12.51220703-4.00869751-7.473081-2.37709876-14.93798276-4.77912173-22.40136719-7.1864624-4.76738705-1.53759579-9.5362697-3.07051083-14.30566406-4.60186768-.79887383-.25650329-1.59774765-.51300659-2.42082977-.77728271-6.35031454-2.0383345-12.70203552-4.07226602-19.05421448-6.10478211-4.57147271-1.46365275-9.1400486-2.93593849-13.70640564-4.41547107-2.8528452-.92308483-5.70749058-1.84050735-8.56255341-2.75670719-1.32175266-.42556962-2.64271698-.85359715-3.96279907-1.28432084-1.81435833-.59169712-3.63185009-1.17375949-5.44944763-1.75543022-1.01497559-.32828293-2.02995117-.65656585-3.07568359-.99479675-8.17454372-2.12965834-13.34687642-1.6545638-21.31567383.84098816-.98892746.29602112-1.97785492.59204224-2.99674988.89703369-3.27763359.98515014-6.54805406 1.99233694-9.81892395 2.99969482-2.32741177.70433398-4.65524595 1.40727342-6.98347473 2.10890198-6.16687778 1.86249133-12.32791852 3.74361301-18.48789978 5.62876892-6.05639546 1.8502162-12.11786492 3.68362474-18.17901612 5.51818848-27.36755535 8.28778786-27.36755535 8.28778786-54.69953823 16.69186687-4.88458604 1.51210572-9.7723928 3.01362059-14.66071605 4.51359463-2.30592188.7106288-4.61029956 1.42629062-6.91299057 2.1473198-3.18224748.99612686-6.36936625 1.97491746-9.55805397 2.95019722-.92401171.2941813-1.84802342.58836261-2.80003548.89145851-8.55027418 2.580013-16.06486128 2.93266344-24.64356804.16884422-.62218288-.19602751-1.24436577-.39205502-1.88540268-.59402275-2.05076475-.6498209-4.09432564-1.31979611-6.1385231-1.98996163-1.4824435-.47392829-2.96531571-.94651734-4.44857788-1.41787719-4.00418321-1.27630868-8.00255726-2.56996736-11.99998474-3.86725617-4.19742878-1.3594116-8.39942405-2.7045445-12.60124207-4.05031585-1.72620933-.55302936-3.45240552-1.10609976-5.17858887-1.65921021-.86400924-.27684757-1.72801849-.55369514-2.61820983-.83893204-2.65812879-.85262584-5.31555802-1.70740267-7.97285462-2.56261825-11.7221522-3.76931352-23.46659334-7.46050631-35.23024368-11.0981369-5.23398283-1.61971263-10.46536356-3.24781869-15.69704628-4.87494278-4.18869392-1.30178693-8.37895861-2.59800622-12.57301521-3.88241959-3.94406313-1.20813887-7.8831655-2.43128727-11.81914139-3.66550827-1.43967292-.44843812-2.88107871-.89135882-4.32433319-1.32813263-9.1458602-2.7711316-18.57905383-5.68278276-23.54457474-14.53590012-.38027344-.65355468-.76054688-1.30710937-1.15234375-1.98046875-2.00414472-4.03409387-2.03815404-7.3329932-2.04437733-11.784976-.00352834-1.07287025-.00352834-1.07287025-.00712797-2.16741464-.00669761-2.41511072-.00623155-4.83016773-.00582197-7.24528697-.00329815-1.74167901-.00702361-3.48335726-.01114148-5.22503453-.01003366-4.80064392-.01373899-9.60127533-.01638931-14.40192825-.00389899-5.17193315-.01347759-10.34385637-.02221286-15.51578319-.0197756-12.49722625-.02983189-24.99445333-.03872779-37.49169132-.004381-5.88201014-.00974829-11.76401937-.01498887-17.64602879-.01701317-19.54761092-.03150809-39.09522128-.03874874-58.64283848-.00190997-5.07433733-.00383029-10.14867465-.00578595-15.22301197-.00048374-1.26123506-.00096748-2.52247012-.00146588-3.82192442-.00830308-20.43835615-.03364431-40.87665382-.06611479-61.31498443-.03304913-20.97316494-.05108019-41.94630014-.05427763-62.91949127-.00216705-11.77990919-.01094434-23.5597331-.03646117-35.33961695-.02167765-10.03081851-.02977187-20.06153102-.02003322-30.09237029.00455317-5.11894336.0025994-10.23766791-.01676144-15.35658143-.01757177-4.68631177-.0166827-9.37224412-.00110271-14.05855958.00238519-1.69520081-.0019945-3.39042749-.01382865-5.08558867-.11211229-17.11997584-.11211229-17.11997584 6.39974276-24.70595132 8.43751767-7.06276937 15.18288272-8.58288566 26.10546875-7.79296875 4.3974603.87658513 8.58888554 2.19710409 12.84375 3.6015625 1.82404358.57694359 1.82404358.57694359 3.68493652 1.16554261 2.62674077.83111168 5.24934352 1.67383053 7.8692627 2.52619934 4.16482912 1.354985 8.33791071 2.68321855 12.51220703 4.00869751 7.473081 2.37709876 14.93798276 4.77912173 22.40136719 7.1864624 4.76738705 1.53759579 9.53626969 3.07051082 14.30566406 4.60186768.79887382.25650329 1.59774765.51300659 2.42082977.77728271 6.35031454 2.0383345 12.70203552 4.07226602 19.05421448 6.1047821 4.57147271 1.46365275 9.1400486 2.93593849 13.70640564 4.41547108 2.85284519.92308483 5.70749058 1.84050735 8.56255341 2.75670719 1.32175266.42556962 2.64271698.85359715 3.96279907 1.28432083 1.81435833.59169713 3.63185009 1.1737595 5.44944763 1.75543023 1.01497559.32828292 2.02995117.65656585 3.07568359.99479675 8.17454372 2.12965834 13.34687642 1.6545638 21.31567383-.84098816.98892746-.29602112 1.97785492-.59204224 2.99674988-.89703369 3.27763359-.98515014 6.54805405-1.99233694 9.81892395-2.99969483 2.32741176-.70433397 4.65524595-1.40727341 6.98347473-2.10890197 6.16687778-1.86249133 12.32791852-3.74361301 18.48789978-5.62876892 6.05639546-1.8502162 12.11786492-3.68362474 18.17901611-5.51818848 27.36755536-8.28778786 27.36755536-8.28778786 54.69953824-16.69186688 4.88458604-1.51210571 9.7723928-3.01362058 14.66071605-4.51359462 2.30592188-.7106288 4.61029956-1.42629062 6.91299057-2.1473198 3.18224748-.99612686 6.36936625-1.97491746 9.55805397-2.95019722.92401171-.2941813 1.84802342-.58836261 2.80003548-.89145851 8.57512978-2.58751309 16.08907779-2.92511446 24.69117546-.15297508zm-30.13671875 20.35961914c-1.45475093.46389471-2.9097444.92702943-4.36495972 1.38946533-.74251384.23672676-1.48502769.47345352-2.25004196.71735382-3.35018901 1.05821228-6.71317998 2.07199079-10.07884598 3.07970429-.65740141.19714411-1.31480283.39428821-1.99212551.59740639-2.06547111.61883332-4.1312777 1.2365386-6.19708347 1.85425376-1.49147894.44681298-2.98292821.893725-4.47434998 1.34072876-3.88862272 1.16527324-7.77755175 2.32952037-11.6665802 3.49343872-6.93255346 2.07489725-13.86465189 4.15131319-20.79656982 6.22833252-.74360401.22275479-1.48720802.44550957-2.25334549.6750145-10.12895647 3.03474154-20.25006145 6.09396919-30.36300278 9.18173599-8.17812976 2.49482125-16.37732918 4.91356659-24.58677673 7.30340576-8.34870101 2.45312497-16.5211644 5.18413814-24.79296875 7.94140625v335h12c4 3 4 3 4.5625 6.375-.5625 3.625-.5625 3.625-2.375 6.4375-3.1875 2.1875-3.1875 2.1875-14.1875 4.1875v74c8.71382002-2.36691084 8.71382002-2.36691084 17.3828125-4.8671875 1.09562256-.32564941 2.19124512-.65129882 3.32006836-.9868164 1.12929932-.33692871 2.25859863-.67385742 3.42211914-1.0209961 2.3996976-.71368284 4.79943709-1.42722484 7.19921875-2.140625 1.15032715-.34224609 2.3006543-.68449218 3.48583984-1.03710937 4.03988862-1.19966079 8.08317114-2.38748062 12.12744141-3.57226563 8.51600983-2.49868444 17.01521276-5.05287332 25.51416016-7.60888671 4.18219998-1.25730443 8.36531005-2.51157297 12.54833984-3.76611329 1.66667115-.49998506 3.33333781-.99998507 5-1.5 10-3 10-3 12.50024414-3.75 1.66590664-.4998208 3.33175956-.99982068 4.99755859-1.5 4.17787196-1.25421896 8.35664431-2.50526858 12.53735352-3.75.84240234-.25136718 1.68480469-.50273437 2.55273437-.76171875 1.54911309-.46216633 3.09854258-.92327492 4.6484375-1.3828125 8.95758485-2.67554062 17.84541-5.53917552 26.76367188-8.35546875 0-107.58 0-215.16 0-326-6.34431969 0-10.29619846.06603516-16.125 1.5-11.53635792 2.82523052-11.53635792 2.82523052-15.75.4375-1.78350044-3.07158408-2.125-5.39388757-2.125-8.9375 2.63480131-4.29375028 5.46666469-5.36500977 10.25-6.6875 7.84634324-1.52567785 15.81145236-2.37855322 23.75-3.3125 0-27.39 0-54.78 0-83-3.67332447 0-6.73105654 1.07524902-10.18334961 2.19775391zm27.18334961-1.19775391v82c4.95.99 9.9 1.98 15 3 2.76941458.74363911 5.52699346 1.53867209 8.25 2.4375 1.22203125.39058594 2.4440625.78117188 3.703125 1.18359375 3.17583096 1.43726709 4.39744132 2.35397311 6.046875 5.37890625.52224493 3.58110811.44280469 5.29889258-1.5 8.375-3.61439957 2.34935972-6.3886773 2.36860247-10.5 1.625-3.21757587-.99665533-6.39144732-2.03692736-9.54418945-3.22045898-4.26810355-1.56536139-6.68332957-1.77954102-11.45581055-1.77954102v326c7.82647396 3.1910576 7.82647396 3.1910576 15.734375 5.74609375 1.468927.41608521 1.468927.41608521 2.9675293.84057618 1.50880737.42116088 1.50880737.42116088 3.0480957.85083007 7.84181339 2.23444695 15.52872596 4.6173177 23.17578125 7.44921875 4.18035532 1.51385168 8.41637701 2.80155084 12.671875 4.0859375 3.74586636 1.13107102 7.48109571 2.29457799 11.21484375 3.46484375 1.3645741.42711284 2.72915748.85419601 4.09375 1.28125.67933594.21269532 1.35867187.42539063 2.05859375.64453125 1.98015183.61951008 3.96069725 1.23774261 5.94140625 1.85546875 6.29115655 1.96238635 12.58050648 3.93039594 18.86499023 5.9140625 1.5705772.49523439 3.14170642.98872146 4.71337891 1.48046875 4.4732125 1.40435437 8.9259616 2.85597078 13.36694336 4.359375.98210449.32693848 1.96420898.65387696 2.97607422.99072266 1.90414007.63471336 3.80448062 1.28097822 5.70019531 1.94042969 5.13612117 1.69686441 9.1341434 2.81964909 14.47216797 1.0961914 2.78505974-2.73144227 3.90529666-4.38381361 4.50254732-8.26981926.00119149-1.25302476.00238297-2.50604953.00361055-3.79704475.00611336-.70325794.01222672-1.40651589.01852534-2.13108468.01563245-2.36257871.00272158-4.7241356-.01001951-7.08671927.00532379-1.70842528.01238852-3.41684587.02104705-5.1252575.01867624-4.69940197.01230527-9.39848988.00184697-14.09790516-.00697785-5.06620459.00899511-10.13234375.02199733-15.19852924.02166857-9.92653748.02150586-19.85296046.01337446-29.77951383-.00629352-8.06573486-.00516893-16.13143625.00127207-24.19717074.00090166-1.14687849.00180331-2.29375698.00273229-3.47538936.00185115-2.32968168.00371371-4.65936336.00558756-6.98904502.01658827-21.85811033.00785035-43.71615616-.00898558-65.57426262-.01469963-20.01026017-.00006662-40.02037021.02877017-60.03061104.02937133-20.53365418.040373-41.06723902.03081779-61.60091329-.00102258-2.32122992-.00201718-4.64245986-.00298351-6.9636898-.00047639-1.14216315-.00095278-2.28432631-.0014436-3.46110046-.00216703-8.05836263.00765521-16.11665983.02221463-24.17500794.01748933-9.81716261.01745484-19.63413373-.00535165-29.4512887-.01117283-5.0112809-.01423604-10.02222402.0043007-15.03349066.01673994-4.58440168.01054233-9.16816927-.01421679-13.75252938-.00490509-1.66143309-.00130862-3.32291671.01148744-4.98430777.01610925-2.2535895.00160805-4.50496699-.02071864-6.75845551-.00026969-1.25302477-.00053938-2.50604954-.00081724-3.79704476-.79614329-4.16122895-2.39406803-5.62364349-5.62559515-8.26981926-2.18075148-1.18446174-2.18075148-1.18446174-4.484375-1.84375-.84344971-.27384521-1.68689941-.54769043-2.5559082-.82983398-.89420655-.27271729-1.78841309-.54543457-2.7097168-.82641602-.93739014-.29914306-1.87478027-.59828613-2.84057617-.90649414-6.21588623-1.96777439-12.46741973-3.81432805-18.73583985-5.60693359-7.4152576-2.14453655-14.70790914-4.6475643-22.02050781-7.11523438-6.23978509-2.09580189-12.49240801-4.00370349-18.84057617-5.74633789-6.39255461-1.88632758-12.68671233-4.07030692-19.0012207-6.20092773-6.35211469-2.13331788-12.69864577-4.08616546-19.1628418-5.84985352-5.88246982-1.73199057-11.6713415-3.75550728-17.45581055-5.78930664-1.28837768-.44267212-1.28837768-.44267212-2.6027832-.89428711-.76449463-.26780273-1.52898926-.53560546-2.31665039-.81152343-2.68976809-.78482461-2.68976809-.78482461-7.27319336-.57910157zm-332 6c-1.45299494 2.90598989-1.12819189 5.43421145-1.13142777 8.68210316-.00205263.69810804-.00410526 1.39621608-.0062201 2.1154789-.00569964 2.36280351-.00420912 4.72554928-.00279403 7.0883585-.00258194 1.70170588-.00559461 3.40341116-.0090034 5.10511559-.00809336 4.69468125-.00986086 9.38934722-.01059746 14.08403462-.00184651 5.05600829-.00939178 10.11200858-.01613522 15.16801226-.01360034 11.06391294-.01961066 22.12782227-.02401066 33.19174218-.0027595 6.90379595-.00699631 13.80759049-.01150417 20.71138549-.0121948 19.1015028-.02249376 38.20300447-.02587509 57.30451107-.00021957 1.2232954-.00043913 2.44659079-.00066535 3.70695574-.00021828 1.22628003-.00043656 2.45256005-.00066145 3.71600007-.00044347 2.48505328-.00089004 4.97010657-.00133968 7.45515985-.00022143 1.23268134-.00044286 2.46536269-.00067099 3.73539801-.00394941 19.98131188-.02140685 39.96258731-.04468853 59.94388511-.02369092 20.49738385-.03617482 40.9947494-.03734192 61.49214717-.00091803 11.51544563-.00670232 23.0308438-.02481961 34.54627639-.01537053 9.80437719-.02053952 19.60869224-.0122619 29.41307918.00391732 5.00511373.00292437 10.01010222-.01105735 15.01520069-.01267428 4.57881849-.01159874 9.15741679.00059071 13.73623469.00196829 1.65950884-.00117321 3.31903294-.00984436 4.97852029-.01101813 2.25052814-.00365804 4.50026892.00839153 6.75077447-.00059709 1.25161322-.00119418 2.50322644-.00180936 3.79276734.40923703 3.57707958 1.16952954 5.44255604 3.37374616 8.26685923 2.52088837 1.19163837 4.7554894 2.06111114 7.39453125 2.8671875 1.10355331.36075119 1.10355331.36075119 2.22940063.72879029 2.39098947.77701587 4.78925182 1.52815693 7.18856812 2.27902221 1.64707569.5296669 3.293641 1.06092348 4.93969726 1.59375 4.02463705 1.29849625 8.05527507 2.57698018 12.08850098 3.84851075 2.99700542.94760876 5.98843359 1.91223582 8.97961426 2.87805175 8.33592238 2.68436673 16.69542761 5.29136453 25.0703125 7.8515625 9.15686412 2.80687795 18.28993931 5.69135994 27.421875 8.578125 3.56235949 1.12544517 7.12491928 2.25025533 10.6875 3.375 1.00670746.31795533 1.00670746.31795533 2.03375244.64233399 4.72091095 1.49093724 9.44235852 2.98016003 14.16433716 4.4677124 1.61785827.50994323 3.23555457 1.02040059 4.85308838 1.53137207 2.28720975.72242497 4.574979 1.44305109 6.86288452 2.16326904 1.05022087.33236664 1.05022087.33236664 2.12165832.67144776 2.92674679 1.0689142 2.92674679 1.0689142 5.96427918 1.52386474 0-24.42 0-48.84 0-74-1.98-.99-3.96-1.98-6-3-1.59265271-3.18530542-1.52451655-6.54102602-1-10 2.24583901-2.40072446 3.87260553-2.95753517 7-4 0-110.55 0-221.1 0-335-9.90808066-3.90247583-9.90808066-3.90247583-19.90625-7.03515625-7.24242954-1.99808445-14.41853861-4.17595179-21.59375-6.40234375-1.80404297-.55397461-1.80404297-.55397461-3.64453125-1.11914062-7.29683232-2.26115588-14.49175211-4.69396726-21.66186523-7.3269043-3.22500411-1.12743244-6.46302028-2.08414786-9.75610352-2.99145508-5.98932854-1.65847998-11.86366448-3.57050379-17.75-5.5625-7.23813185-2.44761773-14.49434296-4.74592807-21.84008789-6.84814453-5.18035456-1.48903156-10.26336337-3.18326356-15.33178711-5.01513672-5.65625551-1.57215797-8.25260166-.72540746-12.515625 3.30078125z" fill="#010100" transform="translate(352.953369 1.838135)"/><path d="m0 0c10.28204101 7.09551136 19.40427166 17.58770267 22.4375 29.984375 3.27926105 18.97034886-.79557348 37.27684263-9.63671875 54.1015625-.91458984 1.74796875-.91458984 1.74796875-1.84765625 3.53125-4.24250984 7.86536325-9.23470956 14.76074686-15.15234375 21.46875-.7321875.85335937-1.464375 1.70671875-2.21875 2.5859375-14.84680891 16.99018625-14.84680891 16.99018625-21.609375 17.71875-3.94315675-.37877614-5.10619109-1.44904102-7.921875-4.1796875-.86367187-.83144531-1.72734375-1.66289062-2.6171875-2.51953125-1.30324219-1.28970703-1.30324219-1.28970703-2.6328125-2.60546875-.80695313-.74636719-1.61390625-1.49273437-2.4453125-2.26171875-20.45305383-19.36792396-35.05392667-45.83665236-35.8671875-74.30078125.2986321-14.59783982 5.84120401-26.60535348 15.83203125-37.1484375 4.12935834-3.81071494 8.52681717-6.66244274 13.48046875-9.2890625.78246094-.43441406 1.56492187-.86882812 2.37109375-1.31640625 14.80507863-6.79849211 34.2981017-3.86441698 47.828125 4.23046875z" fill="#030201" transform="translate(113.199219 92.914063)"/><path d="m0 0c3.11126168.89366503 6.21228055 1.81881495 9.3125 2.75.88107422.25265625 1.76214844.5053125 2.66992188.765625 1.27133789.38671875 1.27133789.38671875 2.56835937.78125.78028564.23041992 1.56057129.46083984 2.36450195.69824219 2.69352426 1.29834241 3.56580566 2.42025316 5.0847168 5.00488281.37719816 3.14562076.37719816 3.14562076.38031673 6.94381618.00465992.70210411.00931984 1.40420821.01412097 2.12758819.01199883 2.3645244.00253609 4.72847937-.00675765 7.09300908.00417079 1.70755968.0096469 3.41511659.01631982 5.12266833.01450682 4.70161599.0101936 9.40305746.00283318 14.10468322-.00471646 5.0668926.00776465 10.1337466.01801741 15.20062697.01722323 9.9300012.01802073 19.85993923.0127871 29.78995149-.00403634 8.06861445-.00260453 16.13721018.00274826 24.20582373.00074842 1.14701398.00149684 2.29402796.00226794 3.47579994.00153143 2.32992321.00306978 4.65984642.00461497 6.98976962.01373776 21.86477181.00827837 43.72950787-.00318521 65.59427888-.00993402 20.01676933.00300897 40.03344626.02693419 60.05020134.02436404 20.53813579.03400553 41.07622849.02734727 61.61437846-.00349818 11.53666175-.00122071 23.07325241.01625103 34.60990327.0146883 9.82082147.01540168 19.64152177-.00207091 29.46234077-.00854019 5.0132578-.01058621 10.02629884.00465156 15.0395456.01376752 4.58620943.00918694 9.17201478-.01023924 13.75820036-.00378484 1.66213753-.00076717 3.32430682.00961165 4.98641626.01307929 2.25427215.00166966 4.50713081-.01599782 6.76134098-.00010734 1.25356685-.00021467 2.50713369-.00032526 3.7986874-.59526168 3.89225122-1.70154623 5.54314515-4.50024599 8.27096993-5.83145292 1.76043862-8.7619669.40311196-14-2 .00151888-.88181727.00303776-1.76363455.00460267-2.67217356.08947408-52.24083499.15812423-104.48166186.19965865-156.72255811.00500294-6.26987148.01018022-12.53974279.01546524-18.80961403.00157387-1.87236121.00157387-1.87236121.00317952-3.78254789.01741457-20.2225899.04895806-40.44513442.0857051-60.66769738.03738014-20.74366861.05961848-41.4873134.0677428-62.23101431.00549384-12.80434717.02285794-25.60856604.05531189-38.41287373.02111174-8.77534235.02754174-17.55061817.02233964-26.32598408-.00256697-5.06614686.00142235-10.13206923.02281639-15.19817638.01943938-4.63702885.02046507-9.27368184.00677368-13.91072785-.00169261-1.67845208.00340372-3.35692744.01593715-5.03533359.01604499-2.28109411.00740748-4.56083016-.00734142-6.84190338.00151889-1.26712674.00303777-2.53425348.00460268-3.839778-.61663242-4.40586921-2.15995004-6.79597412-4.49679399-10.54961771 0-.66 0-1.32 0-2z" fill="#ddc39b" transform="translate(473 59)"/><path d="m0 0c7.32855596 5.1384128 12.2335395 12.06922048 14.6015625 20.6796875.39138064 2.93217421.43124007 5.79515956.375 8.75-.01160156.79075928-.02320312 1.58151855-.03515625 2.39624023-.48082707 17.35396832-8.41151419 33.59031706-19.33984375 46.85375977-.4861377.59006836-.97227539 1.18013672-1.47314453 1.78808594-9.61500907 11.60401646-9.61500907 11.60401646-13.52685547 14.21191406-14.60820363-13.46743285-26.9136069-30.53402943-32-50-.20238281-.68707031-.40476563-1.37414062-.61328125-2.08203125-2.9991979-11.32350228-2.17698069-21.67478962 3.61328125-31.91796875 5.05386031-7.60644458 12.13340225-12.12166403 20.5625-15.375 9.8174283-1.78498696 19.0101591-.16317789 27.8359375 4.6953125z" fill="#f24234" transform="translate(104.398438 107.320313)"/><path d="m0 0c2.53802108 1.79618914 4.5636778 3.97939342 6.66796875 6.2578125.60209793.62244598 1.20419586 1.24489197 1.82453918 1.88619995 1.9134032 1.97983661 3.80585287 3.97800419 5.69499207 5.98098755 1.90077859 2.00908574 3.80565971 4.01309213 5.72712708 6.00241089 1.19325673 1.23568146 2.37463937 2.48296161 3.54269409 3.74249267 1.76929454 1.89389146 1.76929454 1.89389146 4.54267883 4.13009644 4.61751214-.42919454 7.03916432-3.76859395 10.05078125-6.96875 1.18512296-1.22306716 2.37068362-2.44571031 3.55664063-3.66796875 1.85564578-1.93002873 3.7061846-3.86444796 5.54858398-5.80712891 1.78493301-1.87583789 3.58830913-3.73232549 5.39477539-5.58740234.54191483-.5822937 1.08382965-1.1645874 1.64216614-1.76452637 2.86102174-2.91603771 4.44293086-4.10569118 8.49528503-5.20227051 3.31176758-.00195312 3.31176758-.00195312 6.74926758 1.99804688 2.5625 3 2.5625 3 3.375 6.3125-2.03542164 9.23768283-12.64005465 16.63419606-19.25 23.1875-1.0282298 1.02320139-2.05622626 2.04663733-3.08398438 3.0703125-2.490159 2.47926749-4.98344395 4.95536288-7.47851562 7.4296875 1.62862387 4.26951396 4.85722601 6.98693593 8.1015625 10.05078125 1.22468952 1.18479153 2.44862513 2.37036277 3.671875 3.55664063 1.92596056 1.85787849 3.85656363 3.70980802 5.80078125 5.54858398 1.87934504 1.78237579 3.73566681 3.58627998 5.58984375 5.39477539.58431793.54191483 1.16863586 1.08382965 1.7706604 1.64216614 2.99366203 2.95451609 3.98629849 4.21197882 4.55892944 8.52653503-.49365234 3.28051758-.49365234 3.28051758-2.55615234 6.21801758-2.9375 2.0625-2.9375 2.0625-6.25 2.8125-9.21989058-1.87523198-16.67302699-12.61672121-23.1875-19.1875-1.02320139-1.0282298-2.04663733-2.05622626-3.0703125-3.08398438-2.47926749-2.490159-4.95536288-4.98344395-7.4296875-7.47851562-4.44953148 3.60200167-8.46805419 7.45960858-12.3984375 11.6171875-.98400897 1.02899599-1.96839039 2.05763592-2.953125 3.0859375-1.52138202 1.58932723-3.03437883 3.18371863-4.52734375 4.79980469-8.31604056 8.97285577-8.31604056 8.97285577-12.76245117 10.26416015-4.04914908.10191154-5.75218822-.26417647-8.92114258-2.89208984-1.76783071-3.53566141-2.27784017-4.97887737-1.4375-8.875 5.18897621-7.18726154 12.15180731-13.26817015 18.4375-19.5 1.0282298-1.02320139 2.05622626-2.04663733 3.08398438-3.0703125 2.490159-2.47926749 4.98344395-4.95536288 7.47851562-7.4296875-1.61275311-4.06760066-4.52129154-6.759438-7.59375-9.75390625-.54732788-.54212631-1.09465576-1.08425262-1.65856934-1.64280701-1.74453005-1.72676331-3.4956095-3.44667819-5.24768066-5.16578674-1.75118813-1.72353273-3.50088199-3.44851683-5.24768066-5.17649841-1.0857018-1.07348596-2.17406613-2.14428736-3.26538086-3.21206665-5.81610322-5.73919793-5.81610322-5.73919793-6.36193848-9.92393494.46122271-3.84352258 1.70940108-5.38100111 4.375-8.125 3.28167277-1.64083638 5.49669173-.88107154 9 0z" fill="#f44436" transform="translate(397 308)"/><path d="m0 0c10.15577629-.68852721 20.36133898 1.64807577 28.2890625 8.3046875 6.92022285 6.85702447 11.04121588 14.33025047 11.12890625 24.18774414-.01417969.74499756-.02835938 1.48999512-.04296875 2.25756836-.01160156.79075928-.02320313 1.58151855-.03515625 2.39624023-.48082707 17.35396832-8.41151419 33.59031706-19.33984375 46.85375977-.4861377.59006836-.97227539 1.18013672-1.47314453 1.78808594-9.61500907 11.60401646-9.61500907 11.60401646-13.52685547 14.21191406-2.64-2.64-5.28-5.28-8-8 .73605469-.69738281 1.47210938-1.39476562 2.23046875-2.11328125 10.5832443-10.62046992 20.80375077-29.76300744 21.76953125-44.88671875.04624512-.71414062.09249023-1.42828125.14013672-2.1640625.87493324-15.69275271-1.41821538-26.79065559-12.14013672-38.8359375-2.76223278-2.76223278-5.20706617-2.57856291-9-3 0-.33 0-.66 0-1z" fill="#c51e1d" transform="translate(80 102)"/><path d="m0 0c7.46740709 1.64282956 11.40724029 8.0908683 15.5625 14 .44956055.61560791.89912109 1.23121582 1.36230469 1.86547852 3.19981802 4.76062918 4.27990892 9.10319335 3.20019531 14.82202148-2.54471222 3.06862356-4.08941981 3.84823663-8 4.5-3.94472982-.65745497-5.22388866-1.58508309-8-4.5-1.57223123-2.42474898-3.01919709-4.89450835-4.44140625-7.41015625-1.48157224-2.46186063-3.10383701-4.56871973-4.93359375-6.77734375-2.1286683-2.78580337-2.64099423-3.89828723-3.3125-7.5 1.06940564-5.15259081 3.4012-7.76577609 8.5625-9z" fill="#040403" transform="translate(399.875 127.3125)"/><path d="m0 0c2.95954973 1.10276216 4.58039067 2.1963546 6.05688477 5.02416992 1.01740644 2.57125417 1.90380045 5.15767031 2.75561523 7.78833008.31130859.89009766.62261719 1.78019531.94335938 2.69726562 1.54251788 4.57331126 2.81527423 8.60553903 2.24414062 13.49023438-2.07829704 3.74093467-3.32541719 4.79149259-7.4375 6.0625-4.42186152-.07757652-5.44398646-1.01372957-8.5625-4.0625-1.51171875-2.98828125-1.51171875-2.98828125-2.6875-6.3125-.40863281-1.15371094-.81726563-2.30742187-1.23828125-3.49609375-.35449219-1.05316406-.70898437-2.10632813-1.07421875-3.19140625-.26167969-.71285156-.52335937-1.42570312-.79296875-2.16015625-1.42966413-4.21223191-1.33793123-7.55857956-.20703125-11.83984375 2.83777264-4.09900493 5.12916192-4.69583401 10-4z" fill="#060504" transform="translate(93 341)"/><path d="m0 0c2.4375 1.625 2.4375 1.625 4 4 .43945445 4.09030682.44920609 6.28226849-1.7578125 9.80859375-.78117187.86753906-1.56234375 1.73507813-2.3671875 2.62890625-2.93837017 3.31367602-5.52301895 6.50277595-7.875 10.25-1.67944058 2.27991095-2.4944788 3.16173052-5.2265625 3.9765625-4.11817655.25487086-6.11915501-.12148678-9.3359375-2.7890625-1.68254753-3.36509506-1.76498412-5.14813843-1.4375-8.875 4.52729099-9.81856234 12.3043742-21.62143337 24-19z" fill="#030302" transform="translate(286 123)"/><g fill="#050403"><path d="m0 0c4.05990199 1.35330066 5.33761335 2.37620857 7.375 6.125.33086904 5.07332525-.38640986 9.26454298-1.8125 14.125-.50466797 1.76730469-.50466797 1.76730469-1.01953125 3.5703125-1.44759443 4.0958692-3.09345832 7.23017707-6.16796875 10.3046875-6.84753902.66266507-6.84753902.66266507-10.5-1.4375-3.56537646-6.09085146-1.32547556-13.30312091.125-19.8125.13986328-.68545898.27972656-1.37091797.42382812-2.07714844 1.54732487-6.31567461 4.76036224-10.56282364 11.57617188-10.79785156z" transform="translate(251.625 323.875)"/><path d="m0 0c3.55154976 2.47064331 4.78040071 4.10471059 5.8125 8.3125.09586538 1.56080823.15066193 3.12418447.1875 4.6875.061875 1.29808594.12375 2.59617188.1875 3.93359375.04502592 1.43870088.08665321 2.87751186.125 4.31640625.0450769 1.04667847.0450769 1.04667847.09106445 2.11450195.03747435 3.41757804-.1410324 5.28318231-2.20825195 8.05737305-3.11744681 2.24101158-5.37593354 2.578125-9.1953125 2.578125-2.80189446-1.76641172-4.51524911-3.03049822-6-6-.50866934-4.32054947-.74086707-8.65830102-1-13-.07863281-.9590625-.15726562-1.918125-.23828125-2.90625-.23246362-4.41016698-.18954895-6.44552242 2.30078125-10.21875 3.72360663-2.37677019 5.59560577-2.65033825 9.9375-1.875z" transform="translate(429 188)"/><path d="m0 0c3.65907504.68607657 5.35167676 1.98984314 8 4.5625 2.05624944 4.11249889 1.3172507 9.35480498 1.375 13.875.03738281 1.10214844.07476562 2.20429688.11328125 3.33984375.08862866 8.10459812.08862866 8.10459812-2.79296875 11.50390625-3.61358353 1.71776144-5.74310684 1.98700101-9.6953125 1.28125-3.14959664-2.72261051-4.71013505-4.44736288-5.47949219-8.56835938-.19359937-3.01359452-.2025062-5.97512577-.14550781-8.99414062-.01933594-1.02802734-.03867188-2.05605469-.05859375-3.11523438.03168876-4.88957623.06798014-7.48985785 3.03515625-11.50195312 2.6484375-1.8203125 2.6484375-1.8203125 5.6484375-2.3828125z" transform="translate(85 289.4375)"/><path d="m0 0c.75539063.09152344 1.51078125.18304688 2.2890625.27734375 2.78366402 1.04778365 3.548558 2.25542413 5.0859375 4.78515625.38818359 2.59375.38818359 2.59375.3984375 5.5.00580078 1.5778125.00580078 1.5778125.01171875 3.1875-.01160156 1.093125-.02320313 2.18625-.03515625 3.3125.01160156 1.093125.02320313 2.18625.03515625 3.3125-.00386719 1.051875-.00773437 2.10375-.01171875 3.1875-.00338379.9590625-.00676758 1.918125-.01025391 2.90625-.45189788 3.01947366-1.31310381 4.38676886-3.38818359 6.59375-2.0859375.8203125-2.0859375.8203125-4.375 1.125-.75023437.12632812-1.50046875.25265625-2.2734375.3828125-3.00032376-.64791045-4.5214486-2.0258014-6.35693359-4.453125-2.07852707-4.2937859-1.70786392-8.94367328-1.61962891-13.6171875-.01933594-1.02802734-.03867187-2.05605469-.05859375-3.11523438.03130703-4.83067499.11048043-7.50438515 2.93359375-11.53320312 2.92203335-1.90098192 3.98814401-2.36948378 7.375-1.8515625z" transform="translate(427.625 238.9375)"/></g><path d="m0 0c2.69990662 1.79993774 4.5418865 3.083773 6 6 .29382599 3.59764598.27796031 7.20425394.3125 10.8125.02900391.99837891.05800781 1.99675781.08789062 3.02539062.06403154 7.3931795.06403154 7.3931795-2.29492187 11.29882813-2.50267335 2.21479627-3.59751339 2.79555387-6.91796875 3.23828125-3.32547955-.39123289-4.84961899-1.05257259-7.14233398-3.48925781-2.40312073-4.3358338-1.75240409-9.63183283-1.67016602-14.44824219-.01933594-1.13630859-.03867188-2.27261719-.05859375-3.44335938.04868858-8.25271482.04868858-8.25271482 3.03515625-11.74023437 3.25594903-1.54153339 5.086844-1.84750517 8.6484375-1.25390625z" fill="#060504" transform="translate(259 222)"/><path d="m0 0c2.69990662 1.79993774 4.5418865 3.083773 6 6 .29382599 3.59764598.27796031 7.20425394.3125 10.8125.02900391.99837891.05800781 1.99675781.08789062 3.02539062.06403154 7.3931795.06403154 7.3931795-2.29492187 11.29882813-2.50267335 2.21479627-3.59751339 2.79555387-6.91796875 3.23828125-3.1875-.375-3.1875-.375-5.84765625-2.1484375-3.53281032-4.87162157-3.06986622-9.35930737-2.96484375-15.2265625-.01933594-1.08023438-.03867188-2.16046875-.05859375-3.2734375.04850822-7.85833095.04850822-7.85833095 3.03515625-11.94140625 3.2715784-2.20517895 4.77824919-2.51081656 8.6484375-1.78515625z" fill="#050403" transform="translate(88 239)"/><path d="m0 0c2.1953125 1.37109375 2.1953125 1.37109375 4 4 .60256666 3.63203049.55747577 7.20134055.5 10.875.01546875.98097656.0309375 1.96195312.046875 2.97265625-.03240142 6.00236296-.5226948 9.60261763-4.546875 14.15234375-3.09173752 1.54586876-5.59429552 1.29359521-9 1-2.67295597-2.04488272-3.84868342-3.24634352-4.51757812-6.57788086-.00451172-.95269775-.00902344-1.90539551-.01367188-2.88696289-.00515625-1.04736328-.0103125-2.09472656-.015625-3.17382813.01546875-1.08861328.0309375-2.17722656.046875-3.29882812-.01546875-1.08474609-.0309375-2.16949219-.046875-3.28710938.03896773-7.92506226.03896773-7.92506226 2.453125-11.96679687 3.88346814-3.35456296 6.12760559-2.92169508 11.09375-1.80859375z" fill="#040302" transform="translate(260 274)"/><path d="m0 0c2.74196853 2.06968202 3.87069099 3.20160585 4.42578125 6.62890625-.03738281.96808594-.07476562 1.93617188-.11328125 2.93359375-.03867187 1.05445313-.07734375 2.10890625-.1171875 3.1953125-.06445312 1.06992188-.12890625 2.13984375-.1953125 3.2421875-.04382813 1.00804687-.08765625 2.01609375-.1328125 3.0546875-.57099831 9.16079899-.57099831 9.16079899-3.8671875 12.9453125-2.69531332 2.11774618-4.07214132 1.99746873-7.5625 1.875-3.4375-.875-3.4375-.875-5.1328125-2.484375-3.62864131-6.64888767-1.71860578-18.28692714.015625-25.42578125 2.06763824-5.97713813 6.81776012-7.52191821 12.6796875-5.96484375z" fill="#040302" transform="translate(263 171)"/><path d="m0 0c4.59562031 2.24761527 8.76653216 5.14012883 13 8 .71800781.44988281 1.43601563.89976562 2.17578125 1.36328125 2.20266319 1.52977324 3.61958856 2.93840033 4.3828125 5.54296875.20854324 2.28120773.09946293 3.89875558-.55859375 6.09375-2.5625 3.0625-2.5625 3.0625-6 5-7.54906446.59208349-14.23557716-4.8217044-19.78125-9.50390625-2.74397374-2.67218373-4.08432442-4.48790192-4.59375-8.30859375.375-3.1875.375-3.1875 2.5-6.0625 3.46609956-2.56189967 4.65358189-2.60029284 8.875-2.125z" fill="#060504" transform="translate(117 384)"/><path d="m0 0c3.14113196.3141132 4.221981.93578351 7 2.75 2.17286288 3.36443284 2.16761417 5.03022337 1.56323242 8.92285156-1.08491107 3.60141374-3.3709355 5.85606687-6.00073242 8.45214844-.495.51949219-.99 1.03898437-1.5 1.57421875-5.66456937 5.86146617-5.66456937 5.86146617-10.5 6.48828125-3.625-.4375-3.625-.4375-6.5625-2.5-2.0625-2.9375-2.0625-2.9375-2.875-6.25 1.04463044-4.74101507 3.12308984-6.50683684 6.6640625-9.6875 2.02233324-1.88260839 3.52576331-3.77666741 5.1484375-6 2.20126132-2.61512245 3.62444516-3.51865425 7.0625-3.75z" fill="#040403" transform="translate(230.0625 373.25)"/><path d="m0 0c2.1953125 1.5859375 2.1953125 1.5859375 4 4 .53125 3.49609375.53125 3.49609375.5 7.4375.0103125 1.29808594.020625 2.59617187.03125 3.93359375-.60332129 4.12121677-1.55055069 5.77084752-4.53125 8.62890625-3.4375 1.0625-3.4375 1.0625-7 1-3.42741629-2.08625339-4.72481037-3.1744311-6-7-.17066284-2.12069561-.2662598-4.24795098-.3125-6.375-.03738281-1.12148438-.07476562-2.24296875-.11328125-3.3984375.51206489-3.88041836 1.71669302-5.46218675 4.42578125-8.2265625 3.18547144-1.59273572 5.60190847-.76164121 9 0z" fill="#060504" transform="translate(431 291)"/><path d="m0 0c3.80470451.7133821 5.41196019 1.67868421 8 4.5625 1.0625 3.4375 1.0625 3.4375 1 7-1.76641172 2.80189446-3.03049822 4.51524911-6 6-4.0130324.53507099-5.53928033.33051628-8.875-2.0625-2.125-2.9375-2.125-2.9375-2.75-6.4375.94796576-5.30860823 3.24055083-8.05291578 8.625-9.0625z" fill="#fed701" transform="translate(85 127.4375)"/></svg>