<svg height="64" viewBox="0 0 512 512" width="64" xmlns="http://www.w3.org/2000/svg"><g fill="#4b4b4b"><path d="m277.028 262.753-26.612-2.882c-3.641-.394-6.72-2.788-8.118-6.172-.017-.04-.034-.081-.05-.121-1.403-3.383-.92-7.252 1.376-10.105l16.78-20.855c3.164-3.932 2.857-9.616-.712-13.185l-31.411-31.411c-3.569-3.569-9.252-3.876-13.185-.712l-20.864 16.787c-2.846 2.29-6.704 2.776-10.082 1.386-.037-.015-.074-.03-.111-.045-3.396-1.394-5.799-4.478-6.194-8.128l-2.883-26.624c-.543-5.018-4.779-8.82-9.826-8.82h-44.422c-5.047 0-9.283 3.802-9.826 8.82l-2.883 26.624c-.395 3.649-2.799 6.734-6.195 8.128-.037.015-.074.03-.11.045-3.378 1.391-7.236.904-10.082-1.386l-20.866-16.787c-3.932-3.164-9.616-2.857-13.184.712l-31.411 31.411c-3.569 3.569-3.876 9.253-.712 13.185l16.78 20.855c2.296 2.854 2.779 6.722 1.376 10.105-.017.04-.033.081-.05.121-1.399 3.384-4.477 5.778-8.118 6.172l-26.613 2.882c-5.018.543-8.82 4.779-8.82 9.826v44.422c0 5.047 3.802 9.283 8.82 9.826l26.612 2.881c3.641.394 6.72 2.788 8.118 6.172.017.04.033.081.05.121 1.403 3.383.92 7.252-1.376 10.106l-16.78 20.855c-3.164 3.932-2.857 9.616.712 13.185l31.411 31.411c3.569 3.569 9.253 3.876 13.185.712l20.864-16.787c2.846-2.291 6.704-2.777 10.082-1.386.037.015.074.03.111.045 3.396 1.394 5.799 4.478 6.194 8.128l2.883 26.624c.543 5.018 4.779 8.82 9.826 8.82h44.422c5.047 0 9.283-3.802 9.826-8.82l2.883-26.624c.395-3.649 2.798-6.734 6.194-8.128.037-.015.074-.03.11-.045 3.378-1.391 7.236-.905 10.083 1.386l20.864 16.787c3.932 3.164 9.616 2.857 13.185-.712l31.411-31.411c3.569-3.569 3.875-9.253.712-13.185l-16.78-20.855c-2.296-2.853-2.779-6.722-1.376-10.106.016-.04.033-.08.05-.121 1.399-3.384 4.477-5.778 8.118-6.172l26.612-2.881c5.017-.544 8.82-4.78 8.82-9.826v-44.422c.002-5.047-3.8-9.283-8.818-9.826zm-134.104 76.596c-24.609 0-44.559-19.95-44.559-44.559s19.95-44.559 44.559-44.559 44.559 19.95 44.559 44.559-19.95 44.559-44.559 44.559z"/><path d="m507.469 218.212-18.269-14.427c-2.91-2.298-4.526-5.821-4.528-9.53 0-.039 0-.078 0-.118-.006-3.717 1.611-7.249 4.528-9.552l18.269-14.428c4.184-3.304 5.664-8.985 3.624-13.91l-8.025-19.374c-2.04-4.926-7.104-7.896-12.398-7.274l-23.12 2.716c-3.692.434-7.333-.92-9.956-3.553-.027-.028-.055-.056-.083-.083-2.622-2.624-3.97-6.258-3.537-9.941l2.716-23.119c.622-5.294-2.349-10.358-7.274-12.398l-19.374-8.024c-4.925-2.04-10.606-.56-13.91 3.623l-14.428 18.268c-2.299 2.911-5.822 4.526-9.53 4.528-.04 0-.079 0-.118 0-3.716.006-7.248-1.611-9.552-4.528l-14.428-18.269c-3.304-4.184-8.986-5.664-13.911-3.624l-19.374 8.025c-4.925 2.04-7.896 7.104-7.274 12.399l2.716 23.12c.434 3.691-.92 7.332-3.553 9.956-.028.028-.056.056-.084.084-2.624 2.622-6.257 3.97-9.941 3.537l-23.119-2.716c-5.295-.622-10.358 2.349-12.398 7.274l-8.025 19.374c-2.04 4.925-.56 10.607 3.624 13.911l18.268 14.427c2.911 2.299 4.526 5.821 4.528 9.53v.118c.007 3.717-1.611 7.249-4.528 9.552l-18.269 14.428c-4.184 3.304-5.664 8.985-3.623 13.91l8.024 19.374c2.04 4.925 7.104 7.896 12.398 7.274l23.121-2.716c3.691-.434 7.332.92 9.956 3.553.028.028.055.056.083.083 2.622 2.624 3.97 6.257 3.537 9.941l-2.716 23.12c-.622 5.295 2.349 10.358 7.274 12.398l19.374 8.025c4.925 2.04 10.606.56 13.911-3.624l14.427-18.268c2.299-2.911 5.821-4.526 9.53-4.528h.118c3.716-.007 7.249 1.611 9.552 4.528l14.428 18.269c3.304 4.184 8.985 5.664 13.911 3.624l19.374-8.025c4.925-2.04 7.896-7.104 7.274-12.398l-2.716-23.12c-.434-3.691.92-7.333 3.553-9.956.028-.028.056-.056.084-.083 2.624-2.621 6.257-3.97 9.941-3.537l23.12 2.716c5.295.622 10.358-2.349 12.398-7.274l8.025-19.374c2.038-4.928.559-10.61-3.625-13.914zm-103.521 10.489c-18.584 7.698-39.89-1.127-47.588-19.712s1.128-39.89 19.712-47.588 39.89 1.127 47.588 19.712c7.697 18.584-1.128 39.891-19.712 47.588z"/></g></svg>