<?xml version="1.0" standalone="no"?>
<!DOCTYPE svg PUBLIC "-//W3C//DTD SVG 20010904//EN"
 "http://www.w3.org/TR/2001/REC-SVG-20010904/DTD/svg10.dtd">
<svg version="1.0" xmlns="http://www.w3.org/2000/svg"
 width="300" height="300" viewBox="0 0 300.000000 300.000000"
 preserveAspectRatio="xMidYMid meet">

<g transform="translate(0.000000,300.000000) scale(0.100000,-0.100000)"
fill="#000000" stroke="none">
<path d="M1445 2958 c-75 -26 -119 -96 -113 -179 5 -69 42 -124 99 -148 l39
-16 0 -82 0 -83 -34 0 c-52 0 -201 -28 -269 -51 -439 -145 -773 -541 -863
-1024 -26 -139 -27 -572 -1 -684 83 -358 337 -559 802 -637 159 -27 641 -27
800 0 289 48 476 135 623 290 113 119 169 252 193 455 15 123 6 468 -15 581
-69 374 -298 713 -612 904 -140 85 -326 148 -481 162 l-73 7 0 81 0 81 39 16
c57 24 94 79 99 148 5 65 -9 100 -55 142 -49 45 -115 59 -178 37z m215 -852
c268 -45 501 -210 635 -450 90 -162 137 -383 117 -554 -27 -229 -176 -379
-389 -390 -104 -6 -153 6 -278 68 -176 88 -304 88 -480 0 -125 -62 -174 -74
-278 -68 -152 8 -284 96 -347 231 -84 179 -54 474 71 705 184 342 560 523 949
458z m-107 -1490 c88 -36 116 -142 57 -210 -89 -101 -240 -47 -240 85 0 54 33
102 85 125 39 17 58 17 98 0z"/>
<path d="M1050 1721 c-55 -29 -72 -67 -75 -174 -1 -50 2 -110 7 -132 28 -119
185 -146 248 -42 17 27 20 51 20 145 0 136 -13 173 -71 202 -48 25 -85 25
-129 1z"/>
<path d="M1829 1720 c-56 -29 -69 -68 -69 -202 0 -94 3 -118 20 -145 56 -93
188 -85 240 15 7 15 12 68 11 138 0 131 -12 164 -71 195 -44 24 -85 23 -131
-1z"/>
<path d="M1305 1324 c-41 -21 -67 -59 -72 -109 -11 -95 86 -183 229 -207 56
-10 72 -9 134 10 112 34 184 108 184 188 0 70 -64 134 -134 134 -34 0 -87 -22
-105 -43 -7 -10 -24 -17 -36 -17 -12 0 -29 7 -36 17 -34 40 -112 54 -164 27z"/>
<path d="M209 1672 c-64 -45 -112 -111 -134 -189 -9 -31 -21 -128 -27 -217
-17 -280 4 -397 88 -486 36 -38 46 -43 61 -34 16 10 18 27 15 195 -6 292 18
484 81 666 39 110 11 131 -84 65z"/>
<path d="M2701 1692 c-6 -12 -4 -28 6 -52 32 -76 73 -263 83 -386 7 -71 10
-212 8 -313 -3 -165 -1 -185 14 -195 14 -8 24 -4 53 24 88 86 112 202 97 476
-15 263 -52 357 -170 433 -55 35 -77 39 -91 13z"/>
</g>
</svg>
