<svg height="64" viewBox="0 0 512 512" width="64" xmlns="http://www.w3.org/2000/svg"><path d="m466.832 454.227-29.047-30.606c-1.198-1.268-2.853-1.983-4.595-1.983s-3.405.715-4.604 1.974l-26.209 27.606c-1.199 1.259-2.862 1.974-4.604 1.974s-3.397-.715-4.595-1.974l-26.201-27.606c-1.19-1.259-2.853-1.974-4.595-1.974s-3.405.715-4.604 1.974l-26.218 27.606c-1.19 1.259-2.854 1.974-4.595 1.974-1.742 0-3.397-.715-4.595-1.974l-10.458-11.01v-85c4.716 1.12 9.604 1.775 14.665 1.775 23.417 0 43.806-12.751 54.747-31.649 3.302.431 6.639.733 10.053.733 42.262 0 76.516-34.254 76.516-76.516 0-31.71-19.287-58.912-46.764-70.516 7.665-11.924 12.165-26.08 12.165-41.306 0-42.263-34.254-76.516-76.516-76.516-8.82 0-17.252 1.569-25.14 4.311-5.338-37.038-37.117-65.524-75.638-65.524-38.522 0-70.3 28.486-75.637 65.533-7.888-2.751-16.329-4.32-25.149-4.32-42.263 0-76.516 34.254-76.516 76.516 0 15.226 4.5 29.382 12.173 41.306-27.486 11.613-46.763 38.806-46.763 70.516 0 42.263 34.253 76.516 76.516 76.516 3.414 0 6.751-.302 10.053-.733 10.94 18.898 31.33 31.649 54.747 31.649 5.052 0 9.949-.655 14.656-1.775v85.25l-10.226 10.76c-1.198 1.259-2.853 1.974-4.595 1.974s-3.405-.715-4.595-1.974l-26.236-27.615c-1.19-1.25-2.853-1.965-4.595-1.965-1.742-.009-3.397.707-4.595 1.965l-26.252 27.624c-1.199 1.258-2.863 1.974-4.604 1.974-1.733 0-3.397-.707-4.595-1.974l-26.288-27.632c-1.189-1.259-2.862-1.966-4.595-1.966s-3.396.707-4.595 1.966l-29.132 30.632c-1.12 1.181-1.75 2.741-1.75 4.371v53.402h425.146v-53.402c0-1.63-.629-3.19-1.741-4.371zm-181.76-28.649-24.365 25.649c-1.198 1.25-2.853 1.965-4.595 1.965s-3.406-.715-4.595-1.965l-24.598-25.882v-59.42c8.967 3.69 18.778 5.751 29.081 5.751 10.294 0 20.105-2.06 29.072-5.751z" fill="#4b4b4b"/></svg>