<?xml version="1.0" standalone="no"?>
<!DOCTYPE svg PUBLIC "-//W3C//DTD SVG 20010904//EN"
 "http://www.w3.org/TR/2001/REC-SVG-20010904/DTD/svg10.dtd">
<svg version="1.0" xmlns="http://www.w3.org/2000/svg"
 width="64.000000pt" height="64.000000pt" viewBox="0 0 64.000000 64.000000"
 preserveAspectRatio="xMidYMid meet">

<g transform="translate(0.000000,64.000000) scale(0.100000,-0.100000)"
fill="#000000" stroke="none">
<path d="M58 624 c-34 -18 -58 -62 -58 -105 0 -22 10 -41 35 -66 29 -29 35
-43 35 -77 0 -22 9 -59 19 -82 13 -30 16 -46 9 -59 -6 -9 -8 -39 -6 -66 10
-101 97 -164 228 -164 131 0 218 63 228 164 2 27 0 57 -6 67 -7 13 -6 26 5 47
8 16 17 54 20 84 5 44 12 60 39 87 89 89 -18 229 -130 171 -27 -14 -34 -14
-75 0 -24 8 -61 15 -81 15 -20 0 -57 -7 -81 -15 -41 -14 -48 -14 -75 0 -36 19
-71 19 -106 -1z m96 -20 c13 -5 9 -14 -19 -47 -19 -22 -40 -56 -47 -74 -14
-39 -21 -41 -42 -11 -23 33 -20 87 6 115 21 23 67 30 102 17z m264 -13 c102
-53 154 -180 113 -279 -18 -43 -26 -33 -26 35 0 49 -3 58 -33 84 -36 32 -95
40 -132 17 -16 -10 -24 -10 -40 0 -37 23 -96 15 -132 -17 -30 -27 -33 -35 -33
-88 0 -68 -15 -73 -32 -11 -28 101 23 209 122 261 43 23 146 22 193 -2z m169
-3 c27 -26 31 -82 7 -116 -21 -30 -28 -28 -42 11 -7 18 -28 52 -47 74 -38 45
-35 51 24 52 23 1 43 -7 58 -21z m-294 -169 l26 -20 30 22 c23 17 37 20 65 15
48 -9 69 -42 64 -98 -3 -33 1 -50 18 -73 81 -111 -11 -235 -176 -235 -165 0
-257 124 -176 235 17 23 21 40 18 71 -5 48 10 81 41 94 36 14 63 11 90 -11z"/>
<path d="M230 329 c0 -11 5 -17 10 -14 6 3 10 13 10 21 0 8 -4 14 -10 14 -5 0
-10 -9 -10 -21z"/>
<path d="M390 336 c0 -8 5 -18 10 -21 6 -3 10 3 10 14 0 12 -4 21 -10 21 -5 0
-10 -6 -10 -14z"/>
<path d="M310 155 c0 -29 -16 -32 -48 -9 -32 22 -41 9 -14 -19 32 -31 112 -31
144 0 27 28 18 41 -14 19 -32 -23 -48 -20 -48 9 0 14 -4 25 -10 25 -5 0 -10
-11 -10 -25z"/>
</g>
</svg>
