<svg height="64" viewBox="0 0 512 512" width="64" xmlns="http://www.w3.org/2000/svg"><g fill="#4b4b4b"><path d="m94.972 55.756h-64.493c-16.833 0-30.479 13.651-30.479 30.487v342.279c0 16.837 13.646 30.47 30.479 30.47h64.493c16.833 0 30.479-13.634 30.479-30.47v-342.279c.001-16.836-13.646-30.487-30.479-30.487zm3.597 178.481h-71.687v-17.922h71.687zm0-53.766h-71.687v-35.843h71.687z"/><path d="m238.346 55.756h-64.493c-16.833 0-30.479 13.651-30.479 30.487v342.279c0 16.837 13.646 30.47 30.479 30.47h64.493c16.833 0 30.479-13.634 30.479-30.47v-342.279c0-16.836-13.647-30.487-30.479-30.487zm3.596 178.481h-71.687v-17.922h71.687zm0-53.766h-71.687v-35.843h71.687z"/><path d="m510.409 398.305-108.847-324.506c-5.352-15.961-22.63-24.554-38.587-19.208l-61.146 20.512c-15.961 5.356-24.559 22.63-19.204 38.592l108.847 324.505c5.356 15.962 22.63 24.555 38.587 19.208l61.146-20.512c15.961-5.355 24.558-22.629 19.204-38.591zm-183.732-237.812 67.967-22.796 11.398 33.988-67.968 22.796zm28.496 84.962-5.701-16.994 67.968-22.796 5.696 16.994z"/></g></svg>