<svg clip-rule="evenodd" fill-rule="evenodd" height="512" image-rendering="optimizeQuality" shape-rendering="geometricPrecision" text-rendering="geometricPrecision" viewBox="0 0 512 512" width="512" xmlns="http://www.w3.org/2000/svg"><path d="m163.303 504.487c15.8741-57.3687-29.0847-161.873-139.33-172.982-2.2382-.22441-4.47757-.422836-6.77601-.568112-4.39017-.223229-6.80081 2.46969-2.71772 6.38033 1.41733 1.38544 2.80749 2.7756 4.19293 4.13623 54.6828 54.3061 80.7345 94.7861 88.557 143.509.511419 3.22914.995672 6.51498 1.30748 9.83389.676774 7.08191 5.10002 9.69097 10.5426 9.69097h44.2242z" fill="#66b394"/><path d="m348.75 504.487c-15.8752-57.3687 29.0528-161.873 139.296-172.982 2.24056-.22441 4.48112-.422836 6.77601-.568112 4.42324-.223229 6.80317 2.46969 2.71891 6.38033-1.41615 1.38544-2.80631 2.7756-4.19175 4.13623-54.6828 54.3061-80.7345 94.7861-88.5322 143.509-.536222 3.22914-1.02048 6.51498-1.32756 9.83389-.682679 7.08191-5.10474 9.69097-10.5473 9.69097h-44.1923z" fill="#66b394"/><path d="m225.099 504.487c17.713-66.41 8.95869-202.43-157.213-253.847-2.57835-.796065-5.04687-1.55788-7.73979-2.29607-4.42206-1.2189-6.51971 1.5567-3.79607 5.41537 1.98426 2.83347 3.7134 5.32797 5.60907 8.10475 81.8117 118.76 86.6294 154.332 101.345 242.623h61.7955z" fill="#b3e59f"/><path d="m286.921 504.487c-17.713-66.41-8.9268-202.43 157.215-253.847 2.60906-.796065 5.07757-1.55788 7.73861-2.29607 4.42206-1.2189 6.54687 1.5567 3.80198 5.41537-1.98898 2.83347-3.68741 5.32797-5.58899 8.10475-81.8329 118.76-86.6235 154.332-101.368 242.623h-61.7978z" fill="#b3e59f"/><path d="m412.245 188.115c4.45277 10.8544 2.23938 23.7757-6.54805 32.5926-11.7331 11.7083-30.7277 11.7083-42.4371 0-4.28151-4.30631-6.99923-9.5516-8.16144-15.0768-20.38 1.61457-50.738-8.90081-50.738-33.1359 0-27.7182 40.3064-33.1336 69.7597-22.5048l38.1249 38.1249z" fill="#62d9fa"/><path d="m130.079 130.063c5.04687 12.3331 2.55237 27.0154-7.45396 37.0194-13.3217 13.3182-34.8958 13.3182-48.2175 0-4.84962-4.87442-7.93821-10.8532-9.2457-17.119-23.1887 1.81182-57.6557-10.0937-57.6557-37.6466 0-31.4883 45.8068-37.6336 79.2286-25.5615l43.3442 43.3076z" fill="#fd91ba"/><path d="m412.245 188.115c10.8591 4.44805 23.7863 2.26536 32.5725-6.55159 11.7343-11.7036 11.7343-30.6934 0-42.4265-4.28151-4.28151-9.5516-7.00042-15.0827-8.13546 1.6193-20.4131-8.87129-50.7403-33.1359-50.7403-27.6969 0-33.1099 40.3076-22.4788 69.729l38.1249 38.1249z" fill="#62d9fa"/><path d="m130.079 130.063c12.3331 5.04687 27.0143 2.55237 37.0194-7.45396 13.2981-13.2922 13.2981-34.8899 0-48.1868-4.87442-4.87561-10.8532-7.96302-17.1508-9.26578 1.84489-23.1875-10.0878-57.625-37.6442-57.625-31.4906 0-37.6147 45.7761-25.5686 79.2239l43.3442 43.3076z" fill="#fd91ba"/><path d="m225.099 504.487c-9.41105-35.3163-14.739-75.6239-14.739-118.447 0-57.1443 9.97916-131.519 40.8178-185.679 2.92088-5.10592 7.54136-4.00041 9.66617 0 30.7867 57.6498 40.8178 125.223 40.8178 185.679 0 42.8281-5.32797 83.131-14.7402 118.447h-61.8226z" fill="#d6f6b2"/><path d="m469.082 341.453c-54.6805 54.3061-80.7333 94.7802-88.5298 143.504-.536222 3.23387-1.02166 6.51971-1.33347 9.83861-.677955 7.08191-5.09883 9.69097-10.5414 9.69097h24.2646c5.44254 0 9.8646-2.60906 10.5414-9.69097.314174-3.31891.797247-6.60474 1.33347-9.83861 7.79766-48.7242 33.8493-89.1983 88.5263-143.504 1.39134-1.36063 2.7815-2.7508 4.19765-4.13623 4.08426-3.91064 1.69843-6.60356-2.72363-6.38033-2.29016.145276-4.53072.343702-6.77128.568112-4.3382.453545-8.56184 1.02166-12.7016 1.72914.201969 1.07717-.396852 2.4945-2.0693 4.08308-1.41496 1.38544-2.80631 2.7756-4.19293 4.13623z" fill="#5aa687"/><path d="m373.042 397.801c13.1516-35.6304 34.8698-74.7451 77.0459-135.937 1.90158-2.77678 3.60001-5.27128 5.58427-8.10475 2.74961-3.85867.624805-6.63427-3.79726-5.41537-2.66694.738191-5.12954 1.5-7.73861 2.29607-4.70435 1.47402-9.27168 3.00473-13.7504 4.5886-1.55788 2.24056-3.00001 4.33938-4.56261 6.63545-81.8388 118.76-86.6566 154.332-101.37 242.623h24.2658c7.14451-42.8009 11.9363-73.212 24.3225-106.686z" fill="#95d6a4"/><path d="m286.921 504.487c9.41223-35.3163 14.7402-75.6239 14.7402-118.447 0-7.90987-.166536-15.9012-.505513-24.0107-2.44253-53.9364-13.5201-111.529-40.3123-161.669-2.12481-4.00041-6.7453-5.10592-9.66617 0-2.63623 4.61812-5.13072 9.40515-7.45396 14.3115 25.2296 54.3332 33.6781 115.838 33.6781 171.363 0 42.8281-5.33387 83.1357-14.7402 118.452h24.2599z" fill="#b3e59f"/><path d="m225.099 504.487c-9.41105-35.3163-14.739-75.6239-14.739-118.447 0-7.71262.167717-15.7016.566931-23.9528-5.72955-11.5618-12.8433-22.9572-21.5469-33.9261-2.29725 20.2394-3.28584 39.906-3.28584 57.8789 0 42.8281 5.32797 83.131 14.7402 118.447h24.2646z" fill="#95d6a4"/><path d="m163.303 504.487c-7.14687-42.8009-11.9398-73.212-24.3249-106.686-10.9418-15.7288-25.1717-30.1572-42.8009-41.5513 27.5198 53.2017 32.9375 88.7436 42.8588 148.237h24.267z" fill="#5aa687"/><path d="m420.552 139.137c11.7355 11.7331 11.7355 30.7241 0 42.4312-.791341.792522-1.61457 1.53071-2.46379 2.20867 1.36063 1.84371 1.7563 4.14096 1.18819 6.26459 9.04137 1.30276 18.593-1.5 25.5414-8.47325 11.7343-11.7083 11.7343-30.6981 0-42.4312-4.28151-4.28151-9.5516-7.00042-15.0827-8.13546 1.6193-20.4071-8.87129-50.7356-33.1359-50.7356-4.53663 0-8.47325 1.07953-11.8796 3.0319 12.7016 6.71931 19.4209 23.4686 20.693 38.38.540947 6.23506-.0519687 8.50042 6.43703 11.3965 3.17718 1.41024 6.12403 3.45355 8.70239 6.06262z" fill="#57d0f2"/><path d="m142.834 74.4274c13.2969 13.2922 13.2969 34.8911 0 48.182-1.86969 1.86969-3.85513 3.45946-5.97876 4.79293.592915 1.5.650789 3.14529.22441 4.67718 10.5721 1.86851 21.8587-1.30867 30.019-9.47011 13.2981-13.2922 13.2981-34.8899 0-48.182-4.87442-4.87442-10.8532-7.96774-17.1508-9.2705 1.84489-23.1827-10.0878-57.625-37.6407-57.625-4.47875 0-8.42129.907089-11.9055 2.58426 15.9839 7.22364 24.2599 28.0572 25.3394 46.0572.540947 8.90081.229135 8.39058 7.87916 11.6764 3.40159 1.47402 6.43703 3.82796 9.21381 6.57758z" fill="#f585b0"/><path d="m236.098 256.364c-1.19174 3.94253-5.38466 6.17718-9.32838 4.95828-3.96734-1.2189-6.18191-5.41065-4.96301-9.34845 3.71458-12.0473 7.91105-23.4686 12.5315-34.1292 4.70316-10.7705 9.80672-20.7449 15.2493-29.7863 2.15788-3.54686 6.7512-4.67836 10.2922-2.55237 1.13622.682679 2.01024 1.61457 2.60906 2.66694 14.5985 24.1442 26.4485 54.5293 34.5521 88.9987 4.45395 18.8741 7.7705 39.0001 9.81381 60.0309 3.39922-5.15671 7.13979-10.2331 11.1922-15.2186 8.90081-11.0008 19.3902-21.515 31.6406-31.3229 3.22914-2.60434 7.93231-2.09883 10.5142 1.13622 2.57954 3.20198 2.0693 7.93703-1.13386 10.5142-11.4225 9.15711-21.1772 18.9331-29.4225 29.1095-8.42129 10.376-15.339 21.2292-20.9528 32.256.312993 7.36892.484253 14.8217.484253 22.3631 0 21.3957-1.30276 42.1773-3.79726 62.047-2.09883 17.0044-5.07757 33.3592-8.84412 48.9226h45.8659c14.0882-84.6357 20.6611-121.88 100.687-238.207-7.34294 2.35276-14.3705 4.90513-21.0886 7.56617-12.9839 5.1886-24.8906 11.0268-35.8336 17.406-3.57285 2.09883-8.16144.881105-10.2284-2.69292-2.09883-3.57166-.911814-8.16144 2.69292-10.2603 11.3327-6.60356 23.9209-12.7536 37.8379-18.3379 13.1563-5.24411 27.443-9.92129 42.9474-13.9158 3.99568-1.02166 8.07877 1.39016 9.09924 5.38466.542128 2.12599.140552 4.36419-1.13504 6.1512-32.6564 46.5096-54.2246 80.7806-69.1927 109.745 8.39176-6.77128 17.6292-12.8658 27.782-18.052 21.9946-11.2559 48.1289-18.2245 78.4892-18.6827 4.10907-.0519687 7.5142 3.23505 7.54136 7.36892v.218505c-.0271654 1.99253-.844491 3.88348-2.26536 5.25592-34.5001 33.13-58.5947 60.8234-74.4687 87.6097-15.5941 26.3576-23.2442 51.9828-25.115 81.4042-.255119 3.93899-3.54686 7.0264-7.48467 7.0264h-4.58269-4.58269-4.58387-4.58269-4.58269-4.58269-4.58387-4.58269-4.58269-4.58269-4.58269-4.58387-4.58269-4.58269-4.58387-4.58269-4.58269-4.58269-4.58387-4.58269-4.58269-4.58269-4.58269-4.58387-4.58269-4.58269-4.58269-4.58387-4.58269-4.58269-4.58269-4.58387-4.58269-4.58269-4.58269-4.58269-4.58269-4.58387-4.58269-4.58269-4.58269-4.58269-4.58387-4.58269-4.58269-4.58269-4.58269-4.58269-4.58387-4.58151-4.58387-4.58269-4.58269-4.58269-4.58269-4.58269-4.58269-4.58269-4.58387-4.58269-4.58269-4.58269-4.58269-4.58269c-3.91655 0-7.22955-3.0567-7.45868-7.0264-1.86969-29.4214-9.5516-55.0466-25.1469-81.4042-19.1032-32.282-47.5348-61.7352-74.4368-87.6097-1.44804-1.36536-2.32205-3.31773-2.29607-5.47443.0578742-4.13387 3.43229-7.42089 7.56735-7.36892 30.3591.458269 56.4994 7.42679 78.4691 18.6827 10.1776 5.2134 19.4729 11.3067 27.8328 18.1087-5.07285-9.89058-10.9689-20.3753-17.7709-31.7706-2.12481-3.54214-.963782-8.13546 2.57835-10.2603 3.54686-2.12599 8.13546-.962601 10.2343 2.57835 43.0053 71.7392 49.4694 109.067 60.6935 176.556h45.8635c-3.73938-15.5634-6.71931-31.9182-8.84412-48.9226-2.46261-19.8697-3.79607-40.6454-3.79607-62.047 0-7.51065.166536-14.9623.478348-22.3631-12.3012-24.2351-31.0099-47.5891-58.3632-67.4589-20.2973-14.765-45.3545-27.5776-76.0573-37.4115 2.01497 2.94804 4.0571 5.92207 6.06616 8.89609 5.8134 8.53231 11.0575 16.4115 15.7926 23.6989 2.23938 3.48308 1.27087 8.10357-2.1815 10.3429-3.49017 2.26536-8.11065 1.27678-10.3489-2.18268-4.99017-7.68191-10.1776-15.4737-15.6201-23.4686-5.89608-8.72955-11.9067-17.3741-17.9753-25.9891-1.2189-1.70315-1.67008-3.94253-1.10433-6.1512 1.02166-3.9945 5.07876-6.40632 9.07444-5.38466 42.0675 10.8532 75.2341 26.6965 101.139 45.5198 22.0005 15.9579 38.8076 34.0678 51.4537 53.1143.0838585-.823231.166536-1.67245.255119-2.52048 1.75512-17.1201 4.33348-33.5895 7.6512-49.1765.879924-4.05237 4.84962-6.63663 8.90081-5.78151 4.02639.874018 6.60474 4.84372 5.75553 8.90081-3.22914 15.1867-5.75553 31.0879-7.42679 47.5301-1.61457 15.9839-2.4945 32.6505-2.4945 49.8852 0 20.8028 1.27559 40.9584 3.68623 60.2293 2.20985 17.8028 5.38702 34.7812 9.38152 50.7403h50.2277c4.00041-15.9591 7.14687-32.9375 9.35436-50.7403 2.41182-19.2709 3.68859-39.4265 3.68859-60.2293 0-37.7541-4.19411-73.4931-11.7095-105.467-6.54687-27.7182-15.5611-52.5781-26.4461-73.3798-2.80867 5.29608-5.44254 10.8532-7.9642 16.6347-4.39608 10.115-8.39648 21.0001-11.9646 32.5359zm-191.317-225.617c0-4.13623 3.34371-7.47994 7.48349-7.47994 4.16694 0 7.51065 3.34371 7.51065 7.47994v18.4264l14.1721 14.1721c-.308269-3.28702-.478348-6.54687-.478348-9.78192 0-11.25 1.92638-22.0784 5.97876-30.9473 4.36419-9.66735 11.2548-17.093 20.8383-20.5512 8.55711-3.08977 18.2552-2.63623 26.5879.879924 3.82796 1.58741 5.61498 5.97876 3.9945 9.77601-1.58268 3.80198-5.97758 5.58781-9.78074 3.96852-4.70316-1.95355-10.937-2.29725-15.7607-.568112-5.40947 1.95827-9.46302 6.51971-12.2445 12.6402-3.1193 6.86459-4.61931 15.5623-4.61931 24.802 0 9.72405 1.64528 19.8697 4.73387 29.0257l41.1049 41.1001c4.47875 1.53071 9.32838 1.84253 13.9737.904727 4.90631-.988586 9.64137-3.39922 13.4941-7.28624 5.2134-5.18742 7.79294-11.9894 7.79294-18.7914 0-6.80199-2.57954-13.6028-7.79294-18.7914-1.86851-1.89568-3.94253-3.42639-6.12522-4.61931-2.29607-1.24489-4.73269-2.12599-7.22837-2.63505-3.6567-.766538-6.23388-4.16694-5.95277-7.90632.342521-4.14214.172441-8.70239-.510238-13.35-.677955-4.56734-1.81418-9.15593-3.40159-13.4103-1.44213-3.88111.510238-8.18743 4.39608-9.60475 3.85513-1.44922 8.16144.510238 9.60948 4.39017 2.01024 5.38466 3.40159 10.9689 4.22364 16.4386.511419 3.60355.792522 7.14569.849215 10.5721 1.72914.651971 3.4571 1.41733 5.10474 2.32796 3.51615 1.89568 6.74293 4.2756 9.66617 7.16695 8.10357 8.13546 12.1618 18.7654 12.1618 29.4214 0 10.63-4.05828 21.2871-12.1618 29.3965-6.01065 5.97876-13.4126 9.77601-21.2044 11.3386-3.68623.733467-7.48349.989767-11.2548.707482.282284 3.73938.0578742 7.53664-.681498 11.25-1.58386 7.79176-5.35395 15.1926-11.3386 21.1713-8.13546 8.10947-18.7654 12.1878-29.4214 12.1878-10.6311 0-21.293-4.07836-29.3965-12.1878-2.89017-2.89017-5.30198-6.1512-7.17168-9.66617-.905908-1.64056-1.67245-3.34371-2.32324-5.09883-12.0213-.141733-25.7398-3.28702-36.88-9.63664-12.2185-6.97207-21.4312-17.7426-22.5934-32.5655-.42756-5.16143.140552-10.2355 1.92638-15.1099 3.45946-9.60948 10.8555-16.4693 20.5217-20.8595 8.89963-4.05237 19.728-5.95277 30.984-5.95277 3.23505 0 6.4949.140552 9.78192.452364l-14.204-14.2028h-18.3957c-4.14096 0-7.48467-3.34371-7.48467-7.45278 0-4.13623 3.34962-7.47994 7.48467-7.47994h14.0315v-14.0611zm291.495 69.951c0-4.13387 3.37442-7.47876 7.51065-7.47876 4.13978 0 7.51538 3.34489 7.51538 7.47876v15.8445l10.4575 10.4894c-.140552-2.09883-.229135-4.16694-.229135-6.23388 0-10.037 1.72914-19.7032 5.33269-27.6355 3.9697-8.72955 10.1729-15.4217 18.8764-18.5363 4.42088-1.6193 9.0142-2.13072 13.6926-1.76103 13.4067 1.05355 23.1036 9.35436 29.3706 20.354 5.5571 9.75121 8.39058 21.7087 8.58782 32.2548 4.75986 1.87087 9.15593 4.72915 12.7548 8.35987 7.31341 7.31223 10.9689 16.9217 10.9689 26.5005 0 9.6083-3.65552 19.2178-10.9689 26.53-5.38584 5.38702-12.078 8.78625-19.1044 10.2036-3.00473.625986-6.06734.85394-9.12877.708664.139371 3.06261-.0838585 6.12522-.677955 9.12995-1.42205 7.0264-4.84962 13.6878-10.2343 19.1044-7.31223 7.31223-16.9217 10.9678-26.5052 10.9678-9.60948 0-19.219-3.65552-26.5312-10.9678-3.60001-3.63072-6.4949-7.99491-8.36459-12.7559-10.5426-.197245-22.506-3.03072-32.2607-8.58782-10.9949-6.29175-19.3028-15.9839-20.3493-29.3635-.369686-4.67836.141733-9.27286 1.7563-13.6878 3.11812-8.70357 9.83861-14.9126 18.541-18.88 7.93703-3.59883 17.5985-5.32797 27.6343-5.32797 2.06812 0 4.14214.0826774 6.23978.229135l-10.5201-10.5213h-15.8174c-4.11025 0-7.45396-3.34371-7.45396-7.45396 0-4.13387 3.34371-7.48349 7.45396-7.48349h11.4532v-11.4804zm69.5931 91.6408-35.8903-35.8844c-7.93821-2.63623-16.6666-4.02639-25.0583-4.02639-8.02443 0-15.5351 1.27559-21.489 3.96852-5.15553 2.35276-9.01538 5.75435-10.6288 10.2603-.849215 2.32205-1.07363 5.01616-.876381 7.48349.620081 7.70908 5.83821 13.5485 12.7867 17.5158 7.82247 4.45395 17.6304 6.63073 26.2194 6.63073 1.27559 0 2.4945-.0519687 3.59765-.140552 3.68859-.282284 7.11498 2.21457 7.91223 5.95277.907089 4.3382 3.00473 8.16144 6.12049 11.3138 4.39608 4.39017 10.1504 6.57167 15.9319 6.57167 5.75553 0 11.5099-2.1815 15.9012-6.57167 3.29174-3.29292 5.33269-7.28742 6.18191-11.4532.766538-3.85513.536222-7.88034-.708664-11.6209zm10.6004-10.604c3.74411 1.24961 7.7705 1.47402 11.6504.708664 4.13978-.849215 8.13428-2.91615 11.4213-6.17718 4.39608-4.39608 6.57876-10.1457 6.57876-15.9272 0-5.75435-2.18268-11.5099-6.57876-15.9012-3.11458-3.1193-6.97325-5.24411-11.3067-6.12522-3.74529-.79016-6.23978-4.22364-5.92797-7.90514h-.0259843c.0838585-1.10906.140552-2.32796.140552-3.60001 0-8.58782-2.1815-18.3945-6.62955-26.2182-3.9697-6.94845-9.8079-12.1926-17.5217-12.7855-2.46379-.198426-5.15553.0307088-7.48349.879924-4.50592 1.61457-7.90632 5.46852-10.2603 10.6288-2.69292 5.92325-3.9697 13.4587-3.9697 21.4808 0 8.39058 1.39134 17.119 4.02757 25.0572l35.8855 35.8844zm-291.861-33.4737c.933074-4.64529.620081-9.46775-.936617-13.9737l-41.0741-41.0989c-9.18664-3.08859-19.3064-4.70316-29.0304-4.70316-9.23979 0-17.9422 1.47402-24.828 4.61931-6.09923 2.7508-10.6607 6.80317-12.6201 12.2138-1.02048 2.7815-1.30276 5.98585-1.04646 8.93389.708664 9.15593 6.85868 16.0406 15.052 20.7178 9.01538 5.15553 20.354 7.6512 30.2765 7.6512 1.38544 0 2.7756-.0271654 4.16576-.141733 3.68269-.285828 7.11498 2.20985 7.90632 5.95277.510238 2.46497 1.39016 4.90159 2.63623 7.19884 1.16575 2.1815 2.69292 4.24962 4.59214 6.1512 5.1886 5.18742 11.9906 7.76459 18.7985 7.76459 6.80199 0 13.63-2.57717 18.8162-7.76459 3.86104-3.88584 6.29766-8.589 7.29215-13.5213zm255.235 252.941c-11.1662 30.4418-16.0418 58.3903-22.2816 95.8019h38.1875c2.7508-28.9371 10.9949-54.6769 26.6139-81.0357 14.2619-24.0627 34.6147-48.5836 62.5053-76.5829-19.6146 2.43662-36.9627 7.9642-52.0986 15.7016-22.395 11.4485-39.9993 27.8032-52.9265 46.1151zm-225.385 95.8019c-6.24096-37.4174-11.1154-65.36-22.1989-95.718-12.9272-18.339-30.5836-34.7186-53.0092-46.199-15.1359-7.73743-32.4851-13.265-52.0998-15.7016 27.9225 27.9993 48.2446 52.5202 62.5053 76.5829 15.6201 26.3587 23.8654 52.0986 26.6139 81.0357z"/></svg>